<svg version="1.1" id="Layer_1" xmlns="http://www.w3.org/2000/svg"
	xmlns:xlink="http://www.w3.org/1999/xlink" x="0px" y="0px"
	width="100%" viewBox="0 0 1200 1200" enable-background="new 0 0 1200 1200" xml:space="preserve">
<path fill="none" fill-opacity="0.4" opacity="1.000000" stroke="none" 
	d="
M700.000000,1201.000000 
	C466.666656,1201.000000 233.833328,1201.000000 1.000000,1201.000000 
	C1.000000,801.000000 1.000000,401.000000 1.000000,1.000000 
	C401.000000,1.000000 801.000000,1.000000 1201.000000,1.000000 
	C1201.000000,401.000000 1201.000000,801.000000 1201.000000,1201.000000 
	C1034.166626,1201.000000 867.333313,1201.000000 700.000000,1201.000000 
M124.280876,630.121155 
	C124.472992,631.606323 124.734634,633.086243 124.846992,634.577454 
	C127.230202,666.204285 132.891708,697.262146 141.592636,727.730896 
	C169.186340,824.358032 220.936920,905.790405 296.902832,971.473816 
	C382.302124,1045.313477 481.815002,1085.882690 594.233765,1094.711792 
	C630.196411,1097.536255 666.101257,1096.088623 701.892456,1091.180542 
	C754.062927,1084.026245 804.077148,1069.520020 851.409424,1046.575195 
	C960.267456,993.805115 1041.266479,912.993286 1093.219727,803.546570 
	C1119.481323,748.222717 1134.243774,689.762695 1138.756226,628.753723 
	C1141.368408,593.438904 1140.061279,558.217529 1135.168091,523.098877 
	C1127.780029,470.074860 1112.366821,419.527069 1088.573975,371.627716 
	C1049.448975,292.861298 993.606262,228.393723 921.074463,178.649628 
	C837.421570,121.278351 744.588440,91.878571 643.290894,89.103218 
	C611.084717,88.220825 579.079895,90.658714 547.274231,95.913139 
	C482.804504,106.563812 422.507172,128.617859 366.737549,162.602539 
	C279.148926,215.976959 213.231201,289.057678 169.509918,381.914795 
	C145.184265,433.578644 130.729965,488.023987 125.183907,544.822510 
	C122.442177,572.901184 122.322060,601.038818 124.280876,630.121155 
z"/>
<path fill="#FF1BFF" opacity="1.000000" stroke="none" 
	d="
M124.246712,629.653259 
	C122.322060,601.038818 122.442177,572.901184 125.183907,544.822510 
	C130.729965,488.023987 145.184265,433.578644 169.509918,381.914795 
	C213.231201,289.057678 279.148926,215.976959 366.737549,162.602539 
	C422.507172,128.617859 482.804504,106.563812 547.274231,95.913139 
	C579.079895,90.658714 611.084717,88.220825 643.290894,89.103218 
	C744.588440,91.878571 837.421570,121.278351 921.074463,178.649628 
	C993.606262,228.393723 1049.448975,292.861298 1088.573975,371.627716 
	C1112.366821,419.527069 1127.780029,470.074860 1135.168091,523.098877 
	C1140.061279,558.217529 1141.368408,593.438904 1138.756226,628.753723 
	C1134.243774,689.762695 1119.481323,748.222717 1093.219727,803.546570 
	C1041.266479,912.993286 960.267456,993.805115 851.409424,1046.575195 
	C804.077148,1069.520020 754.062927,1084.026245 701.892456,1091.180542 
	C666.101257,1096.088623 630.196411,1097.536255 594.233765,1094.711792 
	C481.815002,1085.882690 382.302124,1045.313477 296.902832,971.473816 
	C220.936920,905.790405 169.186340,824.358032 141.592636,727.730896 
	C132.891708,697.262146 127.230202,666.204285 124.846992,634.577454 
	C124.734634,633.086243 124.472992,631.606323 124.246712,629.653259 
M301.164734,809.320496 
	C319.701447,836.804932 340.967560,861.990967 366.044952,883.684326 
	C463.958923,968.385071 577.096863,1000.175781 704.475159,977.901672 
	C795.498474,961.984863 871.753235,917.907959 931.953125,847.979736 
	C1006.189148,761.747192 1036.901001,661.214600 1025.116577,547.925171 
	C1020.810486,506.527771 1009.515503,466.986267 991.981995,429.283203 
	C932.155884,300.636597 807.375000,212.402115 662.041870,201.192123 
	C619.553528,197.914871 577.508606,201.242828 536.158752,211.598221 
	C446.723694,233.995743 373.373871,281.547424 316.761566,354.242645 
	C268.836792,415.782257 242.335220,485.911621 236.224701,563.656982 
	C233.893311,593.319641 235.276138,622.879639 239.846298,652.307190 
	C248.642395,708.945923 268.990387,761.047424 301.164734,809.320496 
z"/>
<path fill="#FEFFFE" opacity="1.000000" stroke="none" 
	d="
M300.990112,809.005798 
	C268.990387,761.047424 248.642395,708.945923 239.846298,652.307190 
	C235.276138,622.879639 233.893311,593.319641 236.224701,563.656982 
	C242.335220,485.911621 268.836792,415.782257 316.761566,354.242645 
	C373.373871,281.547424 446.723694,233.995743 536.158752,211.598221 
	C577.508606,201.242828 619.553528,197.914871 662.041870,201.192123 
	C807.375000,212.402115 932.155884,300.636597 991.981995,429.283203 
	C1009.515503,466.986267 1020.810486,506.527771 1025.116577,547.925171 
	C1036.901001,661.214600 1006.189148,761.747192 931.953125,847.979736 
	C871.753235,917.907959 795.498474,961.984863 704.475159,977.901672 
	C577.096863,1000.175781 463.958923,968.385071 366.044952,883.684326 
	C340.967560,861.990967 319.701447,836.804932 300.990112,809.005798 
M501.350494,312.156494 
	C496.749298,316.842529 492.148132,321.528534 486.570221,327.209290 
	C485.557831,322.158264 484.824738,318.500916 484.412842,316.445953 
	C481.837280,314.523193 479.819214,313.498566 478.463226,311.909119 
	C475.107574,307.975769 470.688843,308.043304 467.885223,312.561646 
	C465.606873,316.233490 463.430176,320.000702 461.586395,323.904175 
	C454.386414,339.147522 447.336609,354.461853 440.231018,369.749817 
	C439.826324,369.704529 439.421661,369.659271 439.016998,369.614014 
	C439.016998,366.925385 439.162323,364.225311 438.952271,361.553192 
	C438.855255,360.319000 438.064209,359.139374 437.587860,357.935028 
	C436.666840,358.848755 435.234772,359.613159 434.916382,360.702942 
	C433.752899,364.685455 433.054932,368.802277 431.955902,372.806549 
	C431.710388,373.700989 430.595642,374.868530 429.793182,374.941376 
	C429.115112,375.002869 428.093048,373.782013 427.609161,372.913666 
	C426.786957,371.438232 426.268280,369.793701 425.234009,367.275299 
	C423.275757,370.269165 421.802795,372.521088 420.197662,374.975067 
	C421.885254,376.058746 422.961853,376.792877 424.078186,377.460602 
	C441.077606,387.628448 453.074768,402.096375 458.766846,420.957794 
	C462.251038,432.503082 464.279083,444.589386 465.890747,456.576630 
	C469.016357,479.824646 471.017242,503.224182 474.163208,526.469055 
	C478.163330,556.025024 493.949951,576.605347 522.171692,587.397034 
	C539.704224,594.101257 558.109314,595.109314 577.340942,597.008972 
	C577.340942,593.246887 577.341003,589.786682 577.340942,586.326416 
	C577.340332,549.010010 577.372192,511.693542 577.322327,474.377167 
	C577.303894,460.550232 577.444519,446.708191 576.839111,432.902557 
	C576.476685,424.636566 575.968201,416.059631 573.491394,408.269104 
	C568.175720,391.548859 554.186707,385.471313 538.237366,383.078369 
	C529.056519,381.700897 519.772888,381.008362 510.455505,379.998810 
	C510.455505,376.783783 510.455505,373.883881 510.455505,370.270691 
	C539.373474,370.270691 567.946045,370.270691 596.518555,370.270691 
	C587.240112,367.619934 579.764587,362.717163 573.491089,355.779602 
	C572.950439,355.181702 572.150452,354.427734 571.460083,354.416534 
	C564.825439,354.309113 559.688965,351.578583 557.578003,347.373596 
	C551.170837,347.041534 546.359375,346.792206 541.329956,346.531555 
	C540.456055,338.705841 541.399841,331.878448 546.136475,325.838654 
	C546.920288,324.839203 547.018005,323.301727 547.432800,322.012848 
	C546.060303,322.019165 544.651306,321.830017 543.323914,322.077942 
	C541.371887,322.442474 539.496765,323.199554 537.556030,323.647308 
	C531.963074,324.937836 528.088928,327.653259 526.560669,333.751923 
	C525.493591,338.010040 523.009216,341.913025 520.910706,346.516907 
	C518.799500,338.265167 519.522522,331.587555 522.765869,323.620270 
	C523.265320,322.393433 522.724426,320.743134 522.664673,319.288635 
	C521.554993,320.082306 520.337524,320.763702 519.363708,321.698792 
	C518.206421,322.810028 517.258545,324.139313 515.403137,326.345337 
	C516.230957,322.395813 516.737183,319.980560 517.243408,317.565308 
	C516.736572,317.340912 516.229736,317.116547 515.722839,316.892181 
	C513.397278,320.750610 511.071655,324.609039 508.337891,329.144684 
	C507.190277,323.445190 503.091370,325.781097 500.170624,325.679535 
	C500.792450,320.854340 501.368652,316.382965 502.358215,312.273132 
	C502.411011,312.002899 502.463806,311.732666 502.516663,311.462463 
	C502.348022,311.646301 502.179352,311.830170 501.350494,312.156494 
M433.180389,873.517456 
	C433.906830,875.050232 434.633301,876.583008 435.359741,878.115784 
	C437.488647,876.837952 439.617554,875.560120 442.008636,874.124939 
	C442.643677,874.936829 443.573364,876.125427 444.503052,877.314026 
	C444.552704,876.799255 444.602356,876.284485 444.652039,875.769714 
	C448.617767,875.375488 452.583496,874.981262 456.549225,874.587036 
	C456.801178,875.078796 457.053131,875.570496 457.305084,876.062195 
	C457.814606,872.942322 458.324127,869.822388 458.867462,866.495178 
	C469.431641,874.016663 475.824585,872.104675 477.865051,859.728333 
	C480.412872,862.055054 482.307983,863.785645 484.750580,866.016296 
	C485.493286,865.960754 487.135834,865.817322 488.781097,865.719421 
	C492.070862,865.523682 496.805847,866.588989 498.287323,864.858765 
	C500.140289,862.694763 499.354370,858.243896 499.636871,854.774475 
	C499.771851,853.116882 499.712311,851.444092 499.809570,849.782166 
	C499.836456,849.322571 500.109985,848.877441 500.277985,848.404175 
	C501.748108,848.404175 503.140411,848.404175 504.564636,848.404175 
	C504.665039,847.617859 504.830872,847.122864 504.773163,846.655518 
	C502.406311,827.499329 501.538055,808.265320 502.090118,788.983093 
	C502.179688,785.855713 503.451569,782.762085 503.904449,780.821106 
	C507.799225,781.044617 510.584778,781.204529 513.493164,781.371399 
	C515.722656,786.814636 518.195618,792.852112 521.054260,799.831421 
	C532.072388,797.500061 542.986694,795.990051 553.381409,792.791748 
	C566.814575,788.658630 573.846436,778.578369 575.080261,764.591797 
	C575.489624,759.951233 575.782349,755.287659 575.841980,750.630981 
	C576.313782,713.813293 576.719177,676.994812 577.136902,640.176392 
	C577.193604,635.178406 577.156189,630.178833 577.257446,625.181885 
	C577.314270,622.379578 576.430237,620.997681 573.278259,620.944092 
	C567.456177,620.845093 561.634766,620.388855 555.825012,619.930237 
	C530.538025,617.934204 505.535614,614.443787 481.741119,605.052490 
	C452.510437,593.515564 429.161530,575.334656 415.469238,546.235352 
	C406.409302,526.980713 404.211884,506.353119 403.035706,485.506836 
	C401.637817,460.731201 400.747498,435.913300 398.626068,411.200562 
	C398.004303,403.958099 394.026001,396.978363 391.341187,389.972076 
	C391.021118,389.136871 389.152191,388.895172 387.816589,388.295471 
	C386.517731,386.655670 384.855865,384.557526 382.463593,381.537231 
	C381.740967,385.704742 381.883759,388.455627 380.708069,390.415558 
	C379.912842,391.741364 377.262024,391.954102 374.968201,392.849182 
	C375.678162,394.013275 376.720673,395.722595 378.076172,397.945160 
	C373.601440,397.348328 372.220032,400.021759 372.200623,403.071838 
	C372.178009,406.629974 373.193817,410.183136 373.405579,413.759399 
	C373.505005,415.438629 373.269775,418.241577 372.331024,418.672546 
	C369.447327,419.996368 370.018036,421.640991 370.527435,423.938354 
	C370.983734,425.996338 370.910095,428.232056 370.727417,430.359894 
	C370.231934,436.131866 369.639374,441.899109 368.903198,447.644867 
	C368.644104,449.667084 367.856476,451.621582 367.310181,453.606995 
	C366.879944,453.491455 366.449707,453.375885 366.019470,453.260345 
	C366.874847,446.496826 363.750427,439.636108 367.074982,432.857391 
	C367.866302,431.243896 367.474823,428.932678 367.280243,426.976898 
	C366.822601,422.377106 363.431976,417.713104 367.807037,413.256104 
	C368.138977,412.917938 367.842163,411.969299 367.849457,411.304504 
	C367.887726,407.814575 367.764832,404.313202 368.006287,400.837189 
	C368.454132,394.389404 369.267303,387.965179 369.641235,381.514526 
	C369.955872,376.087433 369.917267,370.636719 369.920380,365.196381 
	C369.921417,363.353821 369.571899,361.511017 369.382629,359.668335 
	C369.007629,359.718658 368.632629,359.769012 368.257629,359.819336 
	C367.902985,361.366425 367.548370,362.913544 367.186035,364.494385 
	C366.134064,364.118073 365.357178,363.840210 364.579163,363.561890 
	C365.399811,368.433990 366.174591,373.033539 366.949341,377.633087 
	C366.141113,377.349274 365.332886,377.065460 364.524628,376.781647 
	C363.485718,377.673798 361.533325,378.594910 361.560547,379.453217 
	C361.704803,383.998016 361.430481,388.882904 363.022308,392.981506 
	C365.678375,399.820282 365.442322,402.772736 359.526611,407.043030 
	C358.532440,407.760681 357.042084,409.059479 357.176422,409.853668 
	C357.776031,413.397369 358.106995,417.355011 359.967041,420.239777 
	C363.772919,426.142303 363.791443,428.824860 358.877441,433.615173 
	C357.199921,435.250427 355.536194,437.631012 355.259186,439.845306 
	C354.063904,449.399811 353.025818,459.006470 352.692627,468.620544 
	C352.555908,472.565277 354.824036,476.764954 348.739319,477.925323 
	C348.502991,477.970398 348.185944,478.417816 348.173859,478.689728 
	C347.968872,483.294312 347.109894,488.016266 347.848633,492.471344 
	C348.470825,496.223755 350.961029,499.666412 352.624329,503.246185 
	C352.106506,503.564575 351.588654,503.882996 351.070831,504.201416 
	C349.839996,502.707489 348.609161,501.213593 346.593292,498.766846 
	C346.593292,503.214508 346.573181,506.657867 346.597046,510.100891 
	C346.669617,520.567444 346.670135,531.035522 346.863678,541.499939 
	C347.132599,556.037048 347.547272,570.571594 347.924225,585.106506 
	C347.936523,585.581665 348.344025,586.047974 348.351440,586.521729 
	C348.377655,588.204163 348.818970,590.119751 348.178619,591.526123 
	C346.543488,595.117126 347.618469,597.401123 351.005829,598.653015 
	C354.787720,600.050781 354.421204,601.947388 352.349060,604.640808 
	C347.667328,610.726257 348.114746,619.502625 352.570984,626.155457 
	C354.433136,628.935486 357.846100,632.890747 351.474762,635.256714 
	C350.865051,635.483093 350.481171,637.202759 350.536377,638.199097 
	C351.170319,649.645325 352.195526,661.076538 352.564697,672.529541 
	C353.502625,701.627625 354.172791,730.734436 354.901276,759.838989 
	C354.955017,761.985474 354.971924,764.243286 354.390106,766.272766 
	C353.110413,770.736267 354.854980,773.393433 358.899780,774.808105 
	C362.813568,776.177002 366.260498,774.360779 368.027924,770.077271 
	C368.776184,768.263855 369.240082,766.333069 369.833221,764.455688 
	C370.530212,765.779724 370.188904,766.966431 370.440033,768.010803 
	C370.922821,770.018372 371.741272,771.945251 372.420532,773.905579 
	C373.844543,772.110413 375.751251,770.509888 376.572937,768.471924 
	C377.649750,765.800964 377.870392,762.784851 378.459290,759.917175 
	C379.259979,762.180176 378.969971,764.347290 379.347290,766.391235 
	C379.677795,768.181519 380.757812,769.833496 381.506714,771.546570 
	C383.119781,770.730652 384.699860,769.838501 386.355865,769.121704 
	C387.812988,768.491028 389.362946,767.609009 390.857819,767.635376 
	C393.390259,767.680054 395.911560,768.353027 398.633881,768.793640 
	C399.647644,774.070496 400.950775,780.226196 401.996857,786.425293 
	C404.402191,800.679749 406.674500,814.956604 409.015594,829.221924 
	C411.357880,843.494934 413.623657,857.781921 416.172943,872.018066 
	C416.553192,874.141479 417.906067,876.475769 419.527740,877.886230 
	C421.235016,879.371155 424.302246,881.104614 425.870514,880.475220 
	C427.796600,879.702148 429.114441,876.732117 430.073486,874.450439 
	C430.818054,872.679016 430.609100,870.506775 430.823975,868.512695 
	C431.106720,868.515991 431.389496,868.519348 431.672272,868.522705 
	C432.130585,869.925598 432.588867,871.328491 433.180389,873.517456 
M811.023315,512.482544 
	C807.903320,523.852173 805.589294,535.521240 801.499084,546.530396 
	C792.388733,571.051575 773.500122,586.422241 750.890320,597.953491 
	C722.603088,612.380493 692.132263,617.786743 660.868286,620.000671 
	C653.962769,620.489624 647.055054,620.948792 639.972961,621.433655 
	C639.972961,631.770935 639.894653,641.596802 639.987122,651.421082 
	C640.307007,685.405640 640.565918,719.391663 641.103455,753.373047 
	C641.311218,766.505005 643.709473,778.973755 655.243835,787.582520 
	C662.219055,792.788574 670.075806,795.828003 678.605347,796.970703 
	C688.739990,798.328308 698.924133,799.316711 709.297791,800.488953 
	C715.310303,795.752747 714.063599,788.648560 714.631836,781.771912 
	C718.172913,788.710449 721.167725,795.735657 723.971008,802.836426 
	C725.310181,806.228455 726.118896,809.833374 727.516296,813.197083 
	C728.009338,814.383911 729.401306,815.699463 730.618591,815.999634 
	C737.252502,817.635010 740.873657,816.068848 745.168701,809.617615 
	C747.253967,811.348633 749.266235,813.019043 751.896729,815.202698 
	C756.168640,812.027954 760.823730,808.568359 765.719543,804.929871 
	C768.210571,808.569580 771.839539,808.113098 775.744324,805.214417 
	C776.516907,804.640747 777.602966,804.506897 778.509705,804.093811 
	C789.414856,799.126160 800.313416,794.144165 811.543091,789.015503 
	C815.147583,792.574036 814.759155,792.426819 816.996826,786.521179 
	C818.009521,783.848450 820.689636,781.622314 823.021729,779.685364 
	C825.475098,777.647644 829.725586,776.815735 830.882324,774.366577 
	C833.606140,768.599243 839.607422,763.861206 837.659851,756.271118 
	C837.431519,755.381470 838.120544,754.256409 838.384338,753.240479 
	C838.772339,753.267029 839.160278,753.293640 839.548279,753.320190 
	C839.548279,758.159668 839.548279,762.999146 839.548279,767.838623 
	C839.834778,767.848206 840.121277,767.857788 840.407715,767.867371 
	C841.182861,766.511230 841.957947,765.155151 843.451843,762.541443 
	C845.086975,765.171692 846.083374,767.040527 847.341003,768.712952 
	C848.347900,770.052002 849.672119,771.152344 850.855408,772.358643 
	C851.484985,770.819580 852.635681,769.290955 852.666565,767.740051 
	C853.197571,741.086731 853.340393,714.423523 854.105408,687.777893 
	C854.577148,671.344727 855.866638,654.931763 856.966492,638.521606 
	C857.354675,632.730530 858.368164,626.984070 858.921997,621.200562 
	C859.753540,612.516907 859.698547,603.668213 861.439880,595.180908 
	C862.548645,589.776733 863.059387,586.138306 855.670471,584.522339 
	C857.365051,580.907043 858.424133,577.652283 860.269104,574.930054 
	C863.552673,570.085327 863.434021,562.623108 859.938599,557.784180 
	C858.802307,556.211182 858.750488,553.854858 858.229614,551.955200 
	C860.579041,552.512512 861.994995,552.848328 863.411011,553.184204 
	C863.774841,551.536804 864.852356,548.709290 864.389221,548.429199 
	C860.762512,546.235840 862.394165,543.363464 862.670044,540.465942 
	C862.967468,537.340515 862.796448,534.152649 862.622986,531.003357 
	C861.917297,518.192566 860.965332,505.393005 860.433594,492.575623 
	C860.063293,483.650879 860.300598,474.701782 860.042664,465.770020 
	C860.017883,464.912262 858.403198,464.100464 857.585205,463.322998 
	C856.773315,450.262146 855.939331,436.846527 855.097900,423.310181 
	C853.546875,423.177795 852.343140,423.075043 851.239319,422.980804 
	C851.309937,393.863739 852.561829,365.173615 859.647461,336.862183 
	C849.777039,344.522186 844.129883,354.466522 841.021973,366.600098 
	C843.532959,366.600098 845.604004,366.600098 848.075500,366.600098 
	C848.380859,370.821259 848.662292,374.711731 848.946960,378.646454 
	C847.139343,378.917480 845.999329,379.144928 844.848145,379.251404 
	C839.457642,379.749908 835.831726,381.925659 835.690430,388.034729 
	C835.655701,389.537079 834.593018,391.015656 834.002930,392.505157 
	C833.661316,392.383667 833.319763,392.262146 832.978149,392.140625 
	C833.363159,389.295685 833.748169,386.450745 834.307983,382.313934 
	C831.514771,384.566101 829.598145,385.851685 827.994446,387.451111 
	C822.155945,393.274109 819.648376,400.725037 819.064575,408.629944 
	C818.059204,422.243469 818.006348,435.929413 816.920959,449.534485 
	C815.267883,470.255280 813.075195,490.933044 811.023315,512.482544 
M747.423340,486.000397 
	C747.615784,484.012482 747.736328,482.014526 748.011902,480.038208 
	C750.352783,463.252563 751.431580,446.160126 755.381531,429.760010 
	C761.474792,404.460876 775.818848,384.787323 800.713623,374.365570 
	C804.974548,372.581787 810.764160,372.421204 813.413879,369.386169 
	C816.077698,366.334930 815.476929,360.569336 816.704407,356.102478 
	C820.125610,343.651978 821.020264,331.082001 819.102478,316.678955 
	C817.486938,319.349976 816.486633,321.003815 815.328186,322.919220 
	C811.091492,319.385956 807.687866,316.547424 803.509949,313.063110 
	C799.166382,326.518921 794.829651,339.953552 790.492920,353.388184 
	C791.207947,341.003357 792.826416,329.016113 794.926025,317.113739 
	C795.729492,312.559174 795.600952,308.585388 792.976379,305.415405 
	C790.183472,306.998840 787.545349,308.494476 785.554504,309.623169 
	C783.152649,319.254150 780.999146,328.955383 778.178040,338.458435 
	C777.464783,340.860901 773.853699,344.704742 772.882507,344.345825 
	C767.598694,342.393250 767.736511,346.017700 766.972534,349.021393 
	C765.957092,353.013306 764.931702,357.002747 763.910583,360.993256 
	C763.553040,360.925415 763.195435,360.857605 762.837891,360.789764 
	C762.837891,353.641174 762.837891,346.492584 762.837891,339.213257 
	C758.166260,338.414307 757.232361,341.456421 756.457214,344.938934 
	C754.761475,352.557373 752.917297,360.142792 751.133789,367.741730 
	C750.684265,367.669434 750.234802,367.597168 749.785278,367.524872 
	C749.785278,366.152222 749.698120,364.773132 749.799438,363.407990 
	C750.451904,354.616028 751.219971,345.831512 751.740356,337.032166 
	C751.813354,335.797455 750.738403,334.494812 750.194824,333.223663 
	C748.960449,334.073181 747.323181,334.660309 746.567139,335.821289 
	C744.279114,339.334869 742.332825,343.070953 740.253357,346.720367 
	C739.873047,346.633392 739.492798,346.546448 739.112488,346.459473 
	C739.652466,341.550201 740.192505,336.640900 740.883240,330.361450 
	C739.271790,332.433136 738.569519,333.472961 737.726562,334.382324 
	C736.835388,335.343597 735.810364,336.180664 735.060730,336.871948 
	C733.891846,334.264313 733.511353,331.376923 731.967041,330.468781 
	C729.875916,329.239197 726.625549,328.693390 724.370728,329.413635 
	C722.355774,330.057343 721.016785,332.817017 719.192505,334.851532 
	C718.672729,332.097839 718.933472,329.253448 717.643066,327.686615 
	C715.935364,325.613037 713.132935,324.184021 710.522461,323.308167 
	C709.937317,323.111847 707.652588,326.192261 707.095215,328.047974 
	C705.615112,332.975891 704.866821,338.121246 703.435242,343.066620 
	C700.824768,352.085022 697.931091,361.021423 694.944275,370.674927 
	C699.377686,370.674927 703.119202,370.674927 707.150757,370.674927 
	C707.362732,373.922607 707.541199,376.656311 707.734924,379.622742 
	C703.640381,380.122131 699.993103,380.356567 696.431885,381.040039 
	C685.037781,383.226990 673.447815,384.809448 662.364441,388.084076 
	C651.030273,391.432800 644.235107,400.246948 643.123474,411.936066 
	C641.565186,428.321991 640.588196,444.813660 640.415710,461.271149 
	C639.963257,504.420135 640.079041,547.575073 639.984192,590.727661 
	C639.981384,592.006531 640.154968,593.285767 640.258911,594.741577 
	C661.832397,596.501526 682.403198,594.146912 701.726685,584.517212 
	C724.037109,573.399048 738.314697,555.772034 742.485474,531.074829 
	C744.946899,516.499207 745.741211,501.642120 747.423340,486.000397 
M530.101135,810.731567 
	C534.788086,819.435364 541.499390,825.600403 551.499084,827.448730 
	C558.494812,828.741821 565.033142,827.357605 571.869263,825.194275 
	C580.582336,822.436951 590.063538,822.069092 597.614075,816.001831 
	C598.206665,815.525696 599.216614,815.159302 599.923157,815.298279 
	C606.715027,816.634155 610.975098,811.027832 616.783997,809.696289 
	C588.544678,809.248230 560.452454,809.241516 532.360291,809.282043 
	C531.554749,809.283203 530.749939,809.786072 530.101135,810.731567 
M630.774292,366.091370 
	C630.040161,367.427795 629.305969,368.764252 628.471863,370.282745 
	C648.982788,370.282745 668.992432,370.282745 689.956787,370.282745 
	C683.492188,365.875854 677.833374,361.990753 672.126892,358.177002 
	C671.636414,357.849213 670.824524,358.025757 670.170959,357.914795 
	C666.325256,357.262054 662.493408,356.516479 658.634644,355.954865 
	C655.600403,355.513214 652.527710,355.341095 649.484558,354.952026 
	C647.992554,354.761230 645.562866,354.764282 645.219910,353.965759 
	C643.746033,350.533539 641.283691,351.814453 640.088989,353.192566 
	C636.776367,357.013824 633.999146,361.299255 630.774292,366.091370 
M652.955139,825.169250 
	C654.528687,824.821594 656.320251,824.841553 657.636841,824.060669 
	C662.557739,821.142090 666.521973,815.387512 673.499390,819.198120 
	C673.610840,819.258972 673.839661,819.180603 673.979004,819.104004 
	C677.921570,816.935669 681.905823,814.835999 685.761047,812.521606 
	C686.564758,812.039124 686.888733,810.757507 687.551880,809.646362 
	C665.762634,809.646362 644.467529,809.646362 623.172424,809.646362 
	C622.937866,810.016968 622.703308,810.387573 622.468750,810.758179 
	C625.593628,813.849182 628.277466,817.716797 631.967651,819.812256 
	C635.637573,821.896240 640.705750,823.768677 644.448242,822.845520 
	C648.246948,821.908508 650.213013,821.991577 652.955139,825.169250 
M820.438416,354.744965 
	C818.993469,359.530701 817.548523,364.316467 815.999451,369.446930 
	C825.053772,368.397186 825.012512,368.393860 825.635803,360.641815 
	C825.780273,358.845398 826.365417,357.088806 826.654480,355.298828 
	C828.024231,346.816284 829.483948,338.344391 830.589905,329.826935 
	C830.773438,328.413177 829.363037,326.792450 828.689270,325.267395 
	C827.778564,326.583710 826.375122,327.785645 826.038635,329.235260 
	C824.130554,337.454498 822.477844,345.733002 820.438416,354.744965 
M839.919006,338.527252 
	C839.919006,336.455750 839.919006,334.384247 839.919006,332.312775 
	C832.112854,342.845398 831.724792,355.700684 826.813721,367.971069 
	C830.534485,367.512360 833.239319,367.178864 836.017212,366.836395 
	C836.585327,362.013947 837.026428,357.563629 837.653748,353.139740 
	C838.304932,348.547455 839.136353,343.980743 839.919006,338.527252 
M412.401520,364.145691 
	C412.093323,366.566101 411.785126,368.986481 411.456482,371.567383 
	C413.811523,372.479370 415.892273,373.285156 418.100037,374.140106 
	C418.695679,371.166840 419.573029,368.634766 419.600403,366.093597 
	C419.624329,363.872803 418.691589,361.641693 418.181488,359.415161 
	C416.351837,360.752991 414.522156,362.090790 412.401520,364.145691 
M388.480377,356.727020 
	C388.268585,356.128967 388.056824,355.530884 387.454132,353.828918 
	C386.446625,357.632019 385.508148,360.376862 385.080109,363.199097 
	C384.918213,364.266449 385.934753,365.512573 386.414154,366.677216 
	C387.069794,365.568390 388.075226,364.526001 388.301178,363.335602 
	C388.663513,361.426605 388.509766,359.419617 388.480377,356.727020 
z"/>
<path fill="#13FF6D" opacity="1.000000" stroke="none" 
	d="
M433.113770,873.124390 
	C432.588867,871.328491 432.130585,869.925598 431.672272,868.522705 
	C431.389496,868.519348 431.106720,868.515991 430.823975,868.512695 
	C430.609100,870.506775 430.818054,872.679016 430.073486,874.450439 
	C429.114441,876.732117 427.796600,879.702148 425.870514,880.475220 
	C424.302246,881.104614 421.235016,879.371155 419.527740,877.886230 
	C417.906067,876.475769 416.553192,874.141479 416.172943,872.018066 
	C413.623657,857.781921 411.357880,843.494934 409.015594,829.221924 
	C406.674500,814.956604 404.402191,800.679749 401.996857,786.425293 
	C400.950775,780.226196 399.647644,774.070496 398.633881,768.793640 
	C395.911560,768.353027 393.390259,767.680054 390.857819,767.635376 
	C389.362946,767.609009 387.812988,768.491028 386.355865,769.121704 
	C384.699860,769.838501 383.119781,770.730652 381.506714,771.546570 
	C380.757812,769.833496 379.677795,768.181519 379.347290,766.391235 
	C378.969971,764.347290 379.259979,762.180176 378.459290,759.917175 
	C377.870392,762.784851 377.649750,765.800964 376.572937,768.471924 
	C375.751251,770.509888 373.844543,772.110413 372.420532,773.905579 
	C371.741272,771.945251 370.922821,770.018372 370.440033,768.010803 
	C370.188904,766.966431 370.530212,765.779724 369.833221,764.455688 
	C369.240082,766.333069 368.776184,768.263855 368.027924,770.077271 
	C366.260498,774.360779 362.813568,776.177002 358.899780,774.808105 
	C354.854980,773.393433 353.110413,770.736267 354.390106,766.272766 
	C354.971924,764.243286 354.955017,761.985474 354.901276,759.838989 
	C354.172791,730.734436 353.502625,701.627625 352.564697,672.529541 
	C352.195526,661.076538 351.170319,649.645325 350.536377,638.199097 
	C350.481171,637.202759 350.865051,635.483093 351.474762,635.256714 
	C357.846100,632.890747 354.433136,628.935486 352.570984,626.155457 
	C348.114746,619.502625 347.667328,610.726257 352.349060,604.640808 
	C354.421204,601.947388 354.787720,600.050781 351.005829,598.653015 
	C347.618469,597.401123 346.543488,595.117126 348.178619,591.526123 
	C348.818970,590.119751 348.377655,588.204163 348.351440,586.521729 
	C348.344025,586.047974 347.936523,585.581665 347.924225,585.106506 
	C347.547272,570.571594 347.132599,556.037048 346.863678,541.499939 
	C346.670135,531.035522 346.669617,520.567444 346.597046,510.100891 
	C346.573181,506.657867 346.593292,503.214508 346.593292,498.766846 
	C348.609161,501.213593 349.839996,502.707489 351.070831,504.201416 
	C351.588654,503.882996 352.106506,503.564575 352.624329,503.246185 
	C350.961029,499.666412 348.470825,496.223755 347.848633,492.471344 
	C347.109894,488.016266 347.968872,483.294312 348.173859,478.689728 
	C348.185944,478.417816 348.502991,477.970398 348.739319,477.925323 
	C354.824036,476.764954 352.555908,472.565277 352.692627,468.620544 
	C353.025818,459.006470 354.063904,449.399811 355.259186,439.845306 
	C355.536194,437.631012 357.199921,435.250427 358.877441,433.615173 
	C363.791443,428.824860 363.772919,426.142303 359.967041,420.239777 
	C358.106995,417.355011 357.776031,413.397369 357.176422,409.853668 
	C357.042084,409.059479 358.532440,407.760681 359.526611,407.043030 
	C365.442322,402.772736 365.678375,399.820282 363.022308,392.981506 
	C361.430481,388.882904 361.704803,383.998016 361.560547,379.453217 
	C361.533325,378.594910 363.485718,377.673798 364.524628,376.781647 
	C365.332886,377.065460 366.141113,377.349274 366.949341,377.633087 
	C366.174591,373.033539 365.399811,368.433990 364.579163,363.561890 
	C365.357178,363.840210 366.134064,364.118073 367.186035,364.494385 
	C367.548370,362.913544 367.902985,361.366425 368.257629,359.819336 
	C368.632629,359.769012 369.007629,359.718658 369.382629,359.668335 
	C369.571899,361.511017 369.921417,363.353821 369.920380,365.196381 
	C369.917267,370.636719 369.955872,376.087433 369.641235,381.514526 
	C369.267303,387.965179 368.454132,394.389404 368.006287,400.837189 
	C367.764832,404.313202 367.887726,407.814575 367.849457,411.304504 
	C367.842163,411.969299 368.138977,412.917938 367.807037,413.256104 
	C363.431976,417.713104 366.822601,422.377106 367.280243,426.976898 
	C367.474823,428.932678 367.866302,431.243896 367.074982,432.857391 
	C363.750427,439.636108 366.874847,446.496826 366.019470,453.260345 
	C366.449707,453.375885 366.879944,453.491455 367.310181,453.606995 
	C367.856476,451.621582 368.644104,449.667084 368.903198,447.644867 
	C369.639374,441.899109 370.231934,436.131866 370.727417,430.359894 
	C370.910095,428.232056 370.983734,425.996338 370.527435,423.938354 
	C370.018036,421.640991 369.447327,419.996368 372.331024,418.672546 
	C373.269775,418.241577 373.505005,415.438629 373.405579,413.759399 
	C373.193817,410.183136 372.178009,406.629974 372.200623,403.071838 
	C372.220032,400.021759 373.601440,397.348328 378.076172,397.945160 
	C376.720673,395.722595 375.678162,394.013275 374.968201,392.849182 
	C377.262024,391.954102 379.912842,391.741364 380.708069,390.415558 
	C381.883759,388.455627 381.740967,385.704742 382.463593,381.537231 
	C384.855865,384.557526 386.517731,386.655670 387.816589,388.295471 
	C389.152191,388.895172 391.021118,389.136871 391.341187,389.972076 
	C394.026001,396.978363 398.004303,403.958099 398.626068,411.200562 
	C400.747498,435.913300 401.637817,460.731201 403.035706,485.506836 
	C404.211884,506.353119 406.409302,526.980713 415.469238,546.235352 
	C429.161530,575.334656 452.510437,593.515564 481.741119,605.052490 
	C505.535614,614.443787 530.538025,617.934204 555.825012,619.930237 
	C561.634766,620.388855 567.456177,620.845093 573.278259,620.944092 
	C576.430237,620.997681 577.314270,622.379578 577.257446,625.181885 
	C577.156189,630.178833 577.193604,635.178406 577.136902,640.176392 
	C576.719177,676.994812 576.313782,713.813293 575.841980,750.630981 
	C575.782349,755.287659 575.489624,759.951233 575.080261,764.591797 
	C573.846436,778.578369 566.814575,788.658630 553.381409,792.791748 
	C542.986694,795.990051 532.072388,797.500061 521.054260,799.831421 
	C518.195618,792.852112 515.722656,786.814636 513.493164,781.371399 
	C510.584778,781.204529 507.799225,781.044617 503.904449,780.821106 
	C503.451569,782.762085 502.179688,785.855713 502.090118,788.983093 
	C501.538055,808.265320 502.406311,827.499329 504.773163,846.655518 
	C504.830872,847.122864 504.665039,847.617859 504.564636,848.404175 
	C503.140411,848.404175 501.748108,848.404175 500.277985,848.404175 
	C500.109985,848.877441 499.836456,849.322571 499.809570,849.782166 
	C499.712311,851.444092 499.771851,853.116882 499.636871,854.774475 
	C499.354370,858.243896 500.140289,862.694763 498.287323,864.858765 
	C496.805847,866.588989 492.070862,865.523682 488.781097,865.719421 
	C487.135834,865.817322 485.493286,865.960754 484.750580,866.016296 
	C482.307983,863.785645 480.412872,862.055054 477.865051,859.728333 
	C475.824585,872.104675 469.431641,874.016663 458.867462,866.495178 
	C458.324127,869.822388 457.814606,872.942322 457.305084,876.062195 
	C457.053131,875.570496 456.801178,875.078796 456.549225,874.587036 
	C452.583496,874.981262 448.617767,875.375488 444.652039,875.769714 
	C444.602356,876.284485 444.552704,876.799255 444.503052,877.314026 
	C443.573364,876.125427 442.643677,874.936829 442.008636,874.124939 
	C439.617554,875.560120 437.488647,876.837952 435.359741,878.115784 
	C434.633301,876.583008 433.906830,875.050232 433.113770,873.124390 
z"/>
<path fill="#13FF6D" opacity="1.000000" stroke="none" 
	d="
M811.067505,512.055786 
	C813.075195,490.933044 815.267883,470.255280 816.920959,449.534485 
	C818.006348,435.929413 818.059204,422.243469 819.064575,408.629944 
	C819.648376,400.725037 822.155945,393.274109 827.994446,387.451111 
	C829.598145,385.851685 831.514771,384.566101 834.307983,382.313934 
	C833.748169,386.450745 833.363159,389.295685 832.978149,392.140625 
	C833.319763,392.262146 833.661316,392.383667 834.002930,392.505157 
	C834.593018,391.015656 835.655701,389.537079 835.690430,388.034729 
	C835.831726,381.925659 839.457642,379.749908 844.848145,379.251404 
	C845.999329,379.144928 847.139343,378.917480 848.946960,378.646454 
	C848.662292,374.711731 848.380859,370.821259 848.075500,366.600098 
	C845.604004,366.600098 843.532959,366.600098 841.021973,366.600098 
	C844.129883,354.466522 849.777039,344.522186 859.647461,336.862183 
	C852.561829,365.173615 851.309937,393.863739 851.239319,422.980804 
	C852.343140,423.075043 853.546875,423.177795 855.097900,423.310181 
	C855.939331,436.846527 856.773315,450.262146 857.585205,463.322998 
	C858.403198,464.100464 860.017883,464.912262 860.042664,465.770020 
	C860.300598,474.701782 860.063293,483.650879 860.433594,492.575623 
	C860.965332,505.393005 861.917297,518.192566 862.622986,531.003357 
	C862.796448,534.152649 862.967468,537.340515 862.670044,540.465942 
	C862.394165,543.363464 860.762512,546.235840 864.389221,548.429199 
	C864.852356,548.709290 863.774841,551.536804 863.411011,553.184204 
	C861.994995,552.848328 860.579041,552.512512 858.229614,551.955200 
	C858.750488,553.854858 858.802307,556.211182 859.938599,557.784180 
	C863.434021,562.623108 863.552673,570.085327 860.269104,574.930054 
	C858.424133,577.652283 857.365051,580.907043 855.670471,584.522339 
	C863.059387,586.138306 862.548645,589.776733 861.439880,595.180908 
	C859.698547,603.668213 859.753540,612.516907 858.921997,621.200562 
	C858.368164,626.984070 857.354675,632.730530 856.966492,638.521606 
	C855.866638,654.931763 854.577148,671.344727 854.105408,687.777893 
	C853.340393,714.423523 853.197571,741.086731 852.666565,767.740051 
	C852.635681,769.290955 851.484985,770.819580 850.855469,772.358643 
	C849.672119,771.152344 848.347900,770.052002 847.341003,768.712952 
	C846.083374,767.040527 845.086975,765.171692 843.451843,762.541443 
	C841.957947,765.155151 841.182861,766.511230 840.407715,767.867371 
	C840.121277,767.857788 839.834778,767.848206 839.548279,767.838623 
	C839.548279,762.999146 839.548279,758.159668 839.548279,753.320190 
	C839.160278,753.293640 838.772339,753.267029 838.384338,753.240479 
	C838.120544,754.256409 837.431519,755.381470 837.659851,756.271118 
	C839.607422,763.861206 833.606140,768.599243 830.882324,774.366577 
	C829.725586,776.815735 825.475098,777.647644 823.021729,779.685364 
	C820.689636,781.622314 818.009521,783.848450 816.996826,786.521179 
	C814.759155,792.426819 815.147583,792.574036 811.543091,789.015503 
	C800.313416,794.144165 789.414856,799.126160 778.509705,804.093811 
	C777.602966,804.506897 776.516907,804.640747 775.744324,805.214417 
	C771.839539,808.113098 768.210571,808.569580 765.719543,804.929871 
	C760.823730,808.568359 756.168640,812.027954 751.896729,815.202698 
	C749.266235,813.019043 747.253967,811.348633 745.168701,809.617615 
	C740.873657,816.068848 737.252502,817.635010 730.618591,815.999634 
	C729.401306,815.699463 728.009338,814.383911 727.516296,813.197083 
	C726.118896,809.833374 725.310181,806.228455 723.971008,802.836426 
	C721.167725,795.735657 718.172913,788.710449 714.631836,781.771912 
	C714.063599,788.648560 715.310303,795.752747 709.297791,800.488953 
	C698.924133,799.316711 688.739990,798.328308 678.605347,796.970703 
	C670.075806,795.828003 662.219055,792.788574 655.243835,787.582520 
	C643.709473,778.973755 641.311218,766.505005 641.103455,753.373047 
	C640.565918,719.391663 640.307007,685.405640 639.987122,651.421082 
	C639.894653,641.596802 639.972961,631.770935 639.972961,621.433655 
	C647.055054,620.948792 653.962769,620.489624 660.868286,620.000671 
	C692.132263,617.786743 722.603088,612.380493 750.890320,597.953491 
	C773.500122,586.422241 792.388733,571.051575 801.499084,546.530396 
	C805.589294,535.521240 807.903320,523.852173 811.067505,512.055786 
z"/>
<path fill="#13FF6D" opacity="1.000000" stroke="none" 
	d="
M501.944885,311.911591 
	C501.368652,316.382965 500.792450,320.854340 500.170624,325.679535 
	C503.091370,325.781097 507.190277,323.445190 508.337891,329.144684 
	C511.071655,324.609039 513.397278,320.750610 515.722839,316.892181 
	C516.229736,317.116547 516.736572,317.340912 517.243408,317.565308 
	C516.737183,319.980560 516.230957,322.395813 515.403137,326.345337 
	C517.258545,324.139313 518.206421,322.810028 519.363708,321.698792 
	C520.337524,320.763702 521.554993,320.082306 522.664673,319.288635 
	C522.724426,320.743134 523.265320,322.393433 522.765869,323.620270 
	C519.522522,331.587555 518.799500,338.265167 520.910706,346.516907 
	C523.009216,341.913025 525.493591,338.010040 526.560669,333.751923 
	C528.088928,327.653259 531.963074,324.937836 537.556030,323.647308 
	C539.496765,323.199554 541.371887,322.442474 543.323914,322.077942 
	C544.651306,321.830017 546.060303,322.019165 547.432800,322.012848 
	C547.018005,323.301727 546.920288,324.839203 546.136475,325.838654 
	C541.399841,331.878448 540.456055,338.705841 541.329956,346.531555 
	C546.359375,346.792206 551.170837,347.041534 557.578003,347.373596 
	C559.688965,351.578583 564.825439,354.309113 571.460083,354.416534 
	C572.150452,354.427734 572.950439,355.181702 573.491089,355.779602 
	C579.764587,362.717163 587.240112,367.619934 596.518555,370.270691 
	C567.946045,370.270691 539.373474,370.270691 510.455505,370.270691 
	C510.455505,373.883881 510.455505,376.783783 510.455505,379.998810 
	C519.772888,381.008362 529.056519,381.700897 538.237366,383.078369 
	C554.186707,385.471313 568.175720,391.548859 573.491394,408.269104 
	C575.968201,416.059631 576.476685,424.636566 576.839111,432.902557 
	C577.444519,446.708191 577.303894,460.550232 577.322327,474.377167 
	C577.372192,511.693542 577.340332,549.010010 577.340942,586.326416 
	C577.341003,589.786682 577.340942,593.246887 577.340942,597.008972 
	C558.109314,595.109314 539.704224,594.101257 522.171692,587.397034 
	C493.949951,576.605347 478.163330,556.025024 474.163208,526.469055 
	C471.017242,503.224182 469.016357,479.824646 465.890747,456.576630 
	C464.279083,444.589386 462.251038,432.503082 458.766846,420.957794 
	C453.074768,402.096375 441.077606,387.628448 424.078186,377.460602 
	C422.961853,376.792877 421.885254,376.058746 420.197662,374.975067 
	C421.802795,372.521088 423.275757,370.269165 425.234009,367.275299 
	C426.268280,369.793701 426.786957,371.438232 427.609161,372.913666 
	C428.093048,373.782013 429.115112,375.002869 429.793182,374.941376 
	C430.595642,374.868530 431.710388,373.700989 431.955902,372.806549 
	C433.054932,368.802277 433.752899,364.685455 434.916382,360.702942 
	C435.234772,359.613159 436.666840,358.848755 437.587830,357.934998 
	C438.064209,359.139374 438.855255,360.319000 438.952271,361.553192 
	C439.162323,364.225311 439.016998,366.925385 439.016998,369.614014 
	C439.421661,369.659271 439.826324,369.704529 440.231018,369.749817 
	C447.336609,354.461853 454.386414,339.147522 461.586395,323.904175 
	C463.430176,320.000702 465.606873,316.233490 467.885223,312.561646 
	C470.688843,308.043304 475.107574,307.975769 478.463226,311.909119 
	C479.819214,313.498566 481.837280,314.523193 484.412842,316.445953 
	C484.824738,318.500916 485.557831,322.158264 486.570221,327.209290 
	C492.148132,321.528534 496.749298,316.842529 501.662720,312.060547 
	C501.974945,311.964630 501.944916,311.911591 501.944885,311.911591 
z"/>
<path fill="#13FF6D" opacity="1.000000" stroke="none" 
	d="
M747.354248,486.455994 
	C745.741211,501.642120 744.946899,516.499207 742.485474,531.074829 
	C738.314697,555.772034 724.037109,573.399048 701.726685,584.517212 
	C682.403198,594.146912 661.832397,596.501526 640.258911,594.741577 
	C640.154968,593.285767 639.981384,592.006531 639.984192,590.727661 
	C640.079041,547.575073 639.963257,504.420135 640.415710,461.271149 
	C640.588196,444.813660 641.565186,428.321991 643.123474,411.936066 
	C644.235107,400.246948 651.030273,391.432800 662.364441,388.084076 
	C673.447815,384.809448 685.037781,383.226990 696.431885,381.040039 
	C699.993103,380.356567 703.640381,380.122131 707.734924,379.622742 
	C707.541199,376.656311 707.362732,373.922607 707.150757,370.674927 
	C703.119202,370.674927 699.377686,370.674927 694.944275,370.674927 
	C697.931091,361.021423 700.824768,352.085022 703.435242,343.066620 
	C704.866821,338.121246 705.615112,332.975891 707.095215,328.047974 
	C707.652588,326.192261 709.937317,323.111847 710.522461,323.308167 
	C713.132935,324.184021 715.935364,325.613037 717.643066,327.686615 
	C718.933472,329.253448 718.672729,332.097839 719.192505,334.851532 
	C721.016785,332.817017 722.355774,330.057343 724.370728,329.413635 
	C726.625549,328.693390 729.875916,329.239197 731.967041,330.468781 
	C733.511353,331.376923 733.891846,334.264313 735.060730,336.871948 
	C735.810364,336.180664 736.835388,335.343597 737.726562,334.382324 
	C738.569519,333.472961 739.271790,332.433136 740.883240,330.361450 
	C740.192505,336.640900 739.652466,341.550201 739.112488,346.459473 
	C739.492798,346.546448 739.873047,346.633392 740.253357,346.720367 
	C742.332825,343.070953 744.279114,339.334869 746.567139,335.821289 
	C747.323181,334.660309 748.960449,334.073181 750.194824,333.223633 
	C750.738403,334.494812 751.813354,335.797455 751.740356,337.032166 
	C751.219971,345.831512 750.451904,354.616028 749.799438,363.407990 
	C749.698120,364.773132 749.785278,366.152222 749.785278,367.524872 
	C750.234802,367.597168 750.684265,367.669434 751.133789,367.741730 
	C752.917297,360.142792 754.761475,352.557373 756.457214,344.938934 
	C757.232361,341.456421 758.166260,338.414307 762.837891,339.213257 
	C762.837891,346.492584 762.837891,353.641174 762.837891,360.789764 
	C763.195435,360.857605 763.553040,360.925415 763.910583,360.993256 
	C764.931702,357.002747 765.957092,353.013306 766.972534,349.021393 
	C767.736511,346.017700 767.598694,342.393250 772.882507,344.345825 
	C773.853699,344.704742 777.464783,340.860901 778.178040,338.458435 
	C780.999146,328.955383 783.152649,319.254150 785.554504,309.623169 
	C787.545349,308.494476 790.183472,306.998840 792.976379,305.415405 
	C795.600952,308.585388 795.729492,312.559174 794.926025,317.113739 
	C792.826416,329.016113 791.207947,341.003357 790.492920,353.388184 
	C794.829651,339.953552 799.166382,326.518921 803.509949,313.063110 
	C807.687866,316.547424 811.091492,319.385956 815.328186,322.919220 
	C816.486633,321.003815 817.486938,319.349976 819.102478,316.678955 
	C821.020264,331.082001 820.125610,343.651978 816.704407,356.102478 
	C815.476929,360.569336 816.077698,366.334930 813.413879,369.386169 
	C810.764160,372.421204 804.974548,372.581787 800.713623,374.365570 
	C775.818848,384.787323 761.474792,404.460876 755.381531,429.760010 
	C751.431580,446.160126 750.352783,463.252563 748.011902,480.038208 
	C747.736328,482.014526 747.615784,484.012482 747.354248,486.455994 
z"/>
<path fill="#1DFF73" opacity="1.000000" stroke="none" 
	d="
M530.022949,810.393250 
	C530.749939,809.786072 531.554749,809.283203 532.360291,809.282043 
	C560.452454,809.241516 588.544678,809.248230 616.783997,809.696289 
	C610.975098,811.027832 606.715027,816.634155 599.923157,815.298279 
	C599.216614,815.159302 598.206665,815.525696 597.614075,816.001831 
	C590.063538,822.069092 580.582336,822.436951 571.869263,825.194275 
	C565.033142,827.357605 558.494812,828.741821 551.499084,827.448730 
	C541.499390,825.600403 534.788086,819.435364 530.022949,810.393250 
z"/>
<path fill="#17FF6F" opacity="1.000000" stroke="none" 
	d="
M630.892334,365.746307 
	C633.999146,361.299255 636.776367,357.013824 640.088989,353.192566 
	C641.283691,351.814453 643.746033,350.533539 645.219910,353.965759 
	C645.562866,354.764282 647.992554,354.761230 649.484558,354.952026 
	C652.527710,355.341095 655.600403,355.513214 658.634644,355.954865 
	C662.493408,356.516479 666.325256,357.262054 670.170959,357.914795 
	C670.824524,358.025757 671.636414,357.849213 672.126892,358.177002 
	C677.833374,361.990753 683.492188,365.875854 689.956787,370.282745 
	C668.992432,370.282745 648.982788,370.282745 628.471863,370.282745 
	C629.305969,368.764252 630.040161,367.427795 630.892334,365.746307 
z"/>
<path fill="#1FFE74" opacity="1.000000" stroke="none" 
	d="
M652.620605,825.043518 
	C650.213013,821.991577 648.246948,821.908508 644.448242,822.845520 
	C640.705750,823.768677 635.637573,821.896240 631.967651,819.812256 
	C628.277466,817.716797 625.593628,813.849182 622.468750,810.758179 
	C622.703308,810.387573 622.937866,810.016968 623.172424,809.646362 
	C644.467529,809.646362 665.762634,809.646362 687.551880,809.646362 
	C686.888733,810.757507 686.564758,812.039124 685.761047,812.521606 
	C681.905823,814.835999 677.921570,816.935669 673.979004,819.104004 
	C673.839661,819.180603 673.610840,819.258972 673.499390,819.198120 
	C666.521973,815.387512 662.557739,821.142090 657.636841,824.060669 
	C656.320251,824.841553 654.528687,824.821594 652.620605,825.043518 
z"/>
<path fill="#20FF74" opacity="1.000000" stroke="none" 
	d="
M820.588318,354.368164 
	C822.477844,345.733002 824.130554,337.454498 826.038635,329.235260 
	C826.375122,327.785645 827.778564,326.583710 828.689331,325.267395 
	C829.363037,326.792450 830.773438,328.413177 830.589905,329.826935 
	C829.483948,338.344391 828.024231,346.816284 826.654480,355.298828 
	C826.365417,357.088806 825.780273,358.845398 825.635803,360.641815 
	C825.012512,368.393860 825.053772,368.397186 815.999451,369.446930 
	C817.548523,364.316467 818.993469,359.530701 820.588318,354.368164 
z"/>
<path fill="#1FFE74" opacity="1.000000" stroke="none" 
	d="
M839.903992,338.965027 
	C839.136353,343.980743 838.304932,348.547455 837.653748,353.139740 
	C837.026428,357.563629 836.585327,362.013947 836.017212,366.836395 
	C833.239319,367.178864 830.534485,367.512360 826.813721,367.971069 
	C831.724792,355.700684 832.112854,342.845398 839.919006,332.312775 
	C839.919006,334.384247 839.919006,336.455750 839.903992,338.965027 
z"/>
<path fill="#25FE79" opacity="1.000000" stroke="none" 
	d="
M412.546997,363.787140 
	C414.522156,362.090790 416.351837,360.752991 418.181488,359.415161 
	C418.691589,361.641693 419.624329,363.872803 419.600403,366.093597 
	C419.573029,368.634766 418.695679,371.166840 418.100037,374.140106 
	C415.892273,373.285156 413.811523,372.479370 411.456482,371.567383 
	C411.785126,368.986481 412.093323,366.566101 412.546997,363.787140 
z"/>
<path fill="#2AFE7B" opacity="1.000000" stroke="none" 
	d="
M388.527283,357.090515 
	C388.509766,359.419617 388.663513,361.426605 388.301178,363.335602 
	C388.075226,364.526001 387.069794,365.568390 386.414124,366.677185 
	C385.934753,365.512573 384.918213,364.266449 385.080109,363.199097 
	C385.508148,360.376862 386.446625,357.632019 387.454132,353.828918 
	C388.056824,355.530884 388.268585,356.128967 388.527283,357.090515 
z"/>
<path fill="#13FF6D" opacity="1.000000" stroke="none" 
	d="
M501.992828,311.989319 
	C502.179352,311.830170 502.348022,311.646301 502.516663,311.462463 
	C502.463806,311.732666 502.411011,312.002899 502.151550,312.092346 
	C501.944916,311.911591 501.974945,311.964630 501.992828,311.989319 
z"/>
</svg>