<svg version="1.1" id="Layer_1" xmlns="http://www.w3.org/2000/svg" xmlns:xlink="http://www.w3.org/1999/xlink" x="0px" y="0px"
	 width="100%" viewBox="0 0 1200 367" enable-background="new 0 0 1200 367" xml:space="preserve">
<path fill="#FEFEFF" opacity="1.000000" stroke="none" 
	d="
M774.000000,368.000000 
	C516.000000,368.000000 258.500000,368.000000 1.000000,368.000000 
	C1.000000,245.666672 1.000000,123.333336 1.000000,1.000000 
	C401.000000,1.000000 801.000000,1.000000 1201.000000,1.000000 
	C1201.000000,123.333336 1201.000000,245.666672 1201.000000,368.000000 
	C1058.833374,368.000000 916.666687,368.000000 774.000000,368.000000 
M260.783447,47.542694 
	C263.206329,47.342075 265.659637,47.303379 268.036133,46.856186 
	C268.910614,46.691628 270.145203,45.659428 270.289032,44.856934 
	C271.065460,40.524704 271.550964,36.140331 272.136810,31.773939 
	C271.707733,31.638975 271.278656,31.504011 270.849609,31.369049 
	C269.704620,34.221569 268.559631,37.074089 267.414673,39.926613 
	C267.224548,39.880722 267.034393,39.834831 266.844269,39.788940 
	C267.165283,35.875019 267.486328,31.961100 267.807343,28.047180 
	C267.298401,27.984764 266.789429,27.922350 266.280487,27.859936 
	C264.848999,32.589478 263.417480,37.319023 261.608368,41.228054 
	C262.160645,35.873680 262.712952,30.519304 263.133270,26.444296 
	C259.786652,24.995102 257.633179,24.062574 255.232834,23.023151 
	C254.029724,25.888931 252.710541,29.031134 251.391373,32.173336 
	C251.095383,32.053192 250.799377,31.933044 250.503372,31.812901 
	C250.864487,27.584784 251.225586,23.356667 251.586700,19.128551 
	C251.065140,18.925959 250.543579,18.723368 250.022018,18.520777 
	C248.823746,19.778961 246.624115,21.011007 246.590469,22.299591 
	C246.379547,30.380146 241.795792,36.038921 236.602661,41.612080 
	C236.602661,39.077705 236.602661,36.588512 236.602661,34.099316 
	C236.069229,33.969921 235.535797,33.840527 235.002365,33.711132 
	C233.875763,37.596233 232.749146,41.481331 231.622543,45.366428 
	C231.448364,45.342640 231.274185,45.318851 231.100006,45.295063 
	C231.357590,40.690235 231.615189,36.085403 231.872787,31.480576 
	C231.421570,31.378338 230.970367,31.276100 230.519150,31.173862 
	C229.179153,32.955433 227.839157,34.737003 225.932358,37.272148 
	C226.259460,34.512390 226.465622,32.773056 226.596588,31.668119 
	C223.368698,30.971525 220.397354,30.330297 216.822113,29.558746 
	C216.160934,29.008280 214.938354,27.778440 213.483643,26.962460 
	C213.200760,26.803782 211.562164,28.127169 211.316803,28.986246 
	C209.552750,35.163280 207.986832,41.396889 206.337433,47.691185 
	C206.900940,47.848846 207.420456,47.889240 207.824371,48.126453 
	C209.150864,48.905483 210.435394,49.755951 211.736053,50.578964 
	C210.354019,51.372532 209.057159,52.573597 207.574036,52.883678 
	C203.022568,53.835258 198.311829,54.104916 193.823975,55.263275 
	C185.954193,57.294556 182.387161,61.829384 181.936493,69.904907 
	C181.500366,77.719948 181.099884,85.547112 181.047058,93.371399 
	C180.920090,112.185036 181.005966,131.000107 181.005966,150.723312 
	C185.909225,150.462646 190.521606,150.477585 195.066269,149.930191 
	C213.368225,147.725861 226.333420,135.198822 227.978592,118.355942 
	C229.014267,107.752968 229.908432,97.134048 231.110764,86.550072 
	C232.371323,75.453407 234.917252,64.550880 243.736145,56.944424 
	C248.378082,52.940678 254.482361,50.632359 260.783447,47.542694 
M281.813538,131.633469 
	C281.904572,129.748047 282.166748,127.852859 282.059631,125.978775 
	C281.211304,111.139290 280.722687,96.261024 279.251434,81.481483 
	C278.189148,70.810486 276.311188,60.243389 278.026398,49.503185 
	C278.887421,44.111614 279.890594,38.742733 280.829468,33.363590 
	C280.378296,33.170765 279.927124,32.977936 279.475952,32.785110 
	C277.061798,36.772182 274.647644,40.759251 272.233490,44.746323 
	C272.692444,44.784721 273.151398,44.823120 273.610352,44.861519 
	C274.561737,46.962147 275.513092,49.062775 276.494965,51.230713 
	C264.575439,55.548519 262.527588,58.857296 261.893555,71.033707 
	C261.184662,84.646461 260.438934,98.291267 258.806854,111.813217 
	C256.845337,128.064880 250.341125,142.271393 234.801071,149.772812 
	C225.771683,154.131454 216.029602,157.353897 206.282852,159.780991 
	C198.174454,161.800156 189.591232,161.912659 181.803619,162.802795 
	C181.803619,184.055847 181.712753,205.009354 181.848663,225.961395 
	C181.902512,234.261917 186.862167,239.166245 194.396194,241.390656 
	C198.174545,242.506210 202.310455,242.357712 206.165482,243.279404 
	C211.423492,244.536530 215.260376,244.110764 215.363647,236.807190 
	C217.346420,240.886841 218.384628,244.543854 220.033569,247.900879 
	C220.715378,249.288940 222.673386,250.844650 224.108841,250.903122 
	C227.126770,251.026031 231.029449,251.233856 233.047821,249.565994 
	C237.295746,246.055817 242.802856,247.235001 247.114243,244.435501 
	C250.273926,242.383850 253.810883,240.287018 257.420471,239.705795 
	C262.451355,238.895706 264.496948,234.589996 267.564819,231.945755 
	C272.834564,227.403656 272.200073,226.667526 277.514496,231.263809 
	C277.634552,228.917984 277.742310,227.016006 277.827698,225.113007 
	C278.900391,201.212357 279.973480,177.311737 281.035187,153.410599 
	C281.156708,150.674698 283.666260,147.646484 279.951416,145.286285 
	C279.588959,145.056015 279.920807,142.902924 280.534729,142.110672 
	C283.092834,138.809570 282.307404,135.633057 280.868134,132.130997 
	C280.868134,132.130997 281.110779,131.879288 281.813538,131.633469 
M57.807919,51.227188 
	C57.807919,48.765087 57.807919,46.302990 57.807919,43.840889 
	C57.370014,43.809635 56.932106,43.778378 56.494202,43.747124 
	C56.331970,46.174419 56.169739,48.601715 55.237854,51.229778 
	C54.961819,51.395271 54.533051,51.496437 54.432262,51.735744 
	C52.353485,56.671303 58.099678,62.750103 52.188519,67.153275 
	C52.144234,67.186256 52.251518,67.465927 52.326904,67.610085 
	C54.511784,71.788177 53.569027,75.147377 51.689922,79.646118 
	C49.040585,85.988846 48.882706,93.445602 48.109627,100.475540 
	C47.486965,106.137695 47.291592,111.875191 47.338474,117.575706 
	C47.402283,125.333870 47.892143,133.088120 48.169846,140.845093 
	C48.327335,145.244186 46.817421,149.906647 50.274338,153.765747 
	C45.279892,159.421982 50.014778,165.665787 49.771465,171.542130 
	C49.002373,190.116867 50.392227,208.783722 51.065533,227.410629 
	C51.123127,229.003952 51.812328,231.717911 52.639832,231.895096 
	C54.223629,232.234222 56.118103,231.122421 57.960094,230.590652 
	C60.747623,234.239990 60.448181,229.496307 61.541611,229.701752 
	C64.627754,229.701752 67.713905,229.701752 71.137535,229.701752 
	C73.740265,245.045685 76.242104,260.311798 79.026009,275.526337 
	C79.359055,277.346436 81.226120,278.885834 82.382164,280.555389 
	C83.708084,279.594940 85.034012,278.634491 86.409523,277.638123 
	C88.922676,280.079102 97.453850,278.317566 98.760208,274.807098 
	C103.568001,277.126648 104.460938,276.859741 107.259811,272.952942 
	C110.601234,273.417358 113.446404,273.812836 117.791809,274.416809 
	C117.791809,260.668854 117.791809,247.991470 117.791809,235.434937 
	C120.612045,235.434937 122.049973,235.434937 123.487900,235.434937 
	C123.176056,235.721130 122.864204,236.007309 122.552353,236.293503 
	C124.699966,238.546341 126.975334,242.854065 128.975159,242.729752 
	C146.330109,241.650757 151.606995,237.074966 151.697525,221.731567 
	C151.805664,203.402237 152.018112,185.073517 152.162094,166.744354 
	C152.172226,165.454895 151.990448,164.163910 151.868347,162.461594 
	C149.353073,162.297867 147.042603,162.296616 144.777939,161.973953 
	C135.570602,160.662079 126.179062,160.024155 117.218094,157.724548 
	C95.282883,152.095490 76.063713,138.206848 73.714989,108.307022 
	C72.645828,94.696358 72.004654,81.052574 71.060364,67.431366 
	C70.684280,62.006603 69.033768,57.150040 62.525833,53.274899 
	C60.593639,61.993248 58.841801,69.897804 57.089966,77.802368 
	C56.480679,74.825729 56.349007,71.856476 56.508957,68.903023 
	C56.812382,63.300362 57.282909,57.706745 57.807919,51.227188 
M1122.808472,314.817474 
	C1122.808472,314.817474 1122.458252,314.528992 1122.541016,313.756592 
	C1122.913452,312.477722 1123.347046,311.213104 1123.648804,309.917755 
	C1126.496338,297.692322 1127.354492,285.476898 1122.122559,273.662598 
	C1116.447266,260.847229 1102.028076,258.398071 1092.241943,268.452393 
	C1090.518188,270.223297 1089.248291,272.431702 1087.728882,274.407349 
	C1087.041870,275.300690 1086.424805,276.505585 1085.490356,276.911285 
	C1075.350342,281.313446 1070.373901,290.088074 1066.249023,299.529388 
	C1061.346313,310.750732 1053.820801,319.942963 1044.636719,327.846405 
	C1042.911133,329.331390 1040.765381,330.487396 1038.625366,331.298859 
	C1034.015869,333.046783 1030.937256,331.660767 1030.070435,326.850159 
	C1029.287354,322.504730 1028.676514,317.753510 1029.612061,313.541626 
	C1032.742310,299.449097 1036.487793,285.487793 1040.261719,271.547668 
	C1041.141846,268.296722 1041.268433,265.625946 1038.510864,263.473877 
	C1035.635010,261.229309 1033.021484,262.393250 1030.288696,264.155823 
	C1025.265137,267.395782 1020.266479,270.775665 1014.899658,273.351959 
	C1009.907349,275.748444 1004.569885,277.847046 1000.297180,277.091156 
	C998.728699,268.563080 998.118286,260.743286 995.726135,253.512939 
	C993.369812,246.390701 987.394653,243.306747 981.474854,244.096619 
	C975.723816,244.863968 970.373596,250.260147 969.018616,256.925171 
	C966.930420,267.196686 971.140198,275.088684 978.681946,281.617340 
	C980.155823,282.893158 981.764587,284.013153 983.428833,285.295685 
	C977.087341,299.720825 969.766113,313.106232 958.882385,324.197083 
	C956.357605,326.769836 953.357239,329.135620 950.143005,330.717285 
	C943.705078,333.885254 939.927124,331.762360 938.831177,324.760132 
	C938.424316,322.160583 938.023438,319.343048 938.588806,316.844116 
	C941.882874,302.283234 945.303406,287.745941 949.023743,273.288818 
	C950.670959,266.887726 950.123169,263.742310 945.904114,262.457672 
	C942.254883,261.346497 939.672302,263.306976 937.775635,269.163116 
	C935.112366,277.386719 932.683411,285.686157 930.144958,293.950348 
	C929.176208,297.104248 928.742126,300.584900 927.097168,303.338989 
	C921.556763,312.615509 914.272888,320.373779 904.847473,325.840729 
	C895.497070,331.264160 885.481750,332.788239 875.002991,329.849701 
	C871.002930,328.727966 867.469604,326.734161 865.993713,321.898773 
	C880.127197,320.184021 891.706604,314.121704 900.824951,303.661163 
	C907.187195,296.362274 911.812988,288.143982 912.113281,278.152283 
	C912.463257,266.506836 904.709778,259.953308 893.365295,262.851440 
	C876.055603,267.273499 865.864929,279.696777 857.788574,294.822327 
	C852.816650,304.133820 846.789978,312.961945 840.477722,321.442017 
	C837.606384,325.299561 833.197815,328.311340 828.943420,330.765289 
	C823.627258,333.831757 820.842407,331.801605 821.014954,325.741455 
	C821.066772,323.920776 821.219849,322.071838 821.606750,320.296875 
	C824.581604,306.649231 827.748413,293.042175 830.588257,279.366943 
	C831.747070,273.786682 831.482300,268.066620 826.213928,264.472137 
	C820.828979,260.798065 815.031555,262.128479 810.392578,265.802246 
	C804.826111,270.210602 799.925842,275.473907 794.851990,280.483276 
	C792.966553,282.344727 791.405884,284.535095 789.697205,286.575500 
	C789.299561,286.323517 788.901855,286.071533 788.504211,285.819550 
	C790.077454,281.320648 791.664062,276.826355 793.220337,272.321564 
	C794.911194,267.427032 793.791687,263.960205 789.943176,262.929230 
	C785.363098,261.702271 783.232056,264.472900 781.881409,268.324188 
	C778.579407,277.739716 775.490540,287.240692 771.846985,296.523224 
	C766.951782,308.994659 758.935852,319.338074 748.716309,327.938354 
	C746.972961,329.405487 744.811401,330.528961 742.663574,331.330444 
	C738.068481,333.045227 734.987000,331.593933 734.102539,326.825134 
	C733.355896,322.799377 732.697754,318.389374 733.564636,314.497894 
	C736.775818,300.082886 740.569031,285.795105 744.286865,271.496765 
	C745.512817,266.782104 744.586182,263.619415 740.847961,262.557709 
	C736.530884,261.331665 734.217468,263.777466 733.069885,267.537384 
	C730.013000,277.552856 726.647705,287.501556 724.201843,297.668457 
	C721.793457,307.679291 719.788452,317.877991 721.958313,328.308655 
	C724.594360,340.980713 735.042053,346.951782 747.140137,342.375641 
	C750.813965,340.986023 754.170715,338.758179 756.344299,337.613708 
	C759.026367,339.969208 761.006165,342.872375 763.657227,343.751587 
	C767.244019,344.941132 769.072266,341.585815 770.699585,338.739594 
	C774.333923,332.383270 777.660400,325.792694 781.877197,319.839386 
	C791.290955,306.549164 801.080383,293.520172 810.947937,280.560760 
	C812.760803,278.179901 815.664612,276.629669 818.064880,274.696014 
	C818.528625,274.959106 818.992371,275.222229 819.456116,275.485321 
	C817.549438,283.652527 815.421631,291.775940 813.794739,299.998505 
	C811.960022,309.271271 809.763000,318.584961 809.206421,327.968781 
	C808.541809,339.175781 817.410645,346.077850 828.332275,343.386383 
	C832.867859,342.268707 837.340820,339.877808 841.155579,337.117096 
	C845.738464,333.800568 849.589172,329.472321 853.905823,325.443146 
	C859.109192,338.256073 869.429382,342.528198 882.178589,343.126648 
	C897.964600,343.867676 911.023926,337.779999 922.568787,327.611206 
	C923.710083,326.605988 924.895386,325.650665 926.469543,324.328369 
	C926.853821,326.543365 926.995850,327.867706 927.319031,329.146240 
	C930.433472,341.466980 941.005981,347.200897 952.644226,342.153748 
	C957.722046,339.951721 962.502441,336.528717 966.638855,332.796692 
	C976.911377,323.528320 984.581238,312.118683 990.046997,299.522491 
	C993.115540,292.450928 996.047974,287.972107 1005.027100,288.357452 
	C1010.939880,288.611237 1017.005005,285.317169 1023.399719,283.498627 
	C1023.008057,285.144135 1022.528198,286.690796 1022.281006,288.273804 
	C1020.515137,299.582794 1018.188293,310.850067 1017.269165,322.229889 
	C1016.616394,330.311768 1019.378052,337.919647 1027.375122,341.957703 
	C1035.238037,345.928101 1042.710815,343.753418 1049.485596,339.094238 
	C1053.158691,336.568146 1056.358154,333.334625 1059.661011,330.300323 
	C1060.690674,329.354401 1061.359497,328.015686 1062.798096,326.016663 
	C1066.188232,336.711853 1072.551270,342.223053 1082.197632,343.532043 
	C1094.154785,345.154602 1104.053345,341.161621 1112.272583,332.350525 
	C1113.886963,330.619843 1116.499878,329.319153 1118.854248,328.863159 
	C1132.339844,326.251587 1143.913330,320.128387 1153.734131,310.624969 
	C1157.595215,306.888702 1158.015869,303.446442 1155.193604,300.763550 
	C1152.332642,298.043884 1149.094971,298.561829 1145.247559,302.236420 
	C1138.906494,308.292816 1131.809448,313.081146 1122.808472,314.817474 
M392.194031,72.425720 
	C384.885376,57.748405 372.162933,50.320976 356.658630,49.271431 
	C336.265350,47.890938 315.744049,48.397537 295.277466,48.114635 
	C293.995514,48.096912 292.710938,48.269535 291.306946,48.361504 
	C291.306946,101.523018 291.306946,154.373337 291.306946,206.780243 
	C313.382904,206.780243 335.285034,208.310379 356.876770,206.375854 
	C381.432861,204.175735 396.934387,186.887665 396.203766,161.001358 
	C395.550964,137.872162 396.307495,114.705780 395.905426,91.565132 
	C395.798126,85.391144 393.722748,79.251358 392.194031,72.425720 
M427.320496,127.975502 
	C429.087219,127.975502 430.853912,127.975502 432.518951,127.975502 
	C433.966431,117.129181 437.635620,112.408325 446.100525,111.361488 
	C450.301819,110.841927 454.727783,111.357910 458.954010,112.025978 
	C463.844116,112.798988 467.274658,116.064278 467.926422,120.911209 
	C468.883026,128.025070 469.038208,135.246704 469.526001,142.294418 
	C468.321198,142.489807 468.136353,142.579163 467.995483,142.533340 
	C466.730804,142.121964 465.487183,141.641602 464.212555,141.265625 
	C450.103882,137.103958 435.990417,136.459091 422.125610,142.032272 
	C412.145325,146.044006 405.036316,152.964127 402.935211,163.940552 
	C398.807465,185.504288 410.186768,203.156067 431.963867,207.853363 
	C453.413483,212.480011 474.288849,209.041901 494.629456,201.465698 
	C497.100983,200.545151 498.128662,199.162567 498.109833,196.312424 
	C497.957733,173.325256 498.173920,150.334915 497.929840,127.349258 
	C497.709076,106.557442 486.996979,94.084351 466.650909,90.225922 
	C464.853943,89.885147 463.037048,89.605675 461.216431,89.440598 
	C447.069946,88.157860 433.145966,88.303413 421.004333,97.190475 
	C410.784241,104.671082 406.104767,114.933853 405.902283,127.975487 
	C413.104645,127.975487 419.735016,127.975487 427.320496,127.975502 
M1044.260620,206.813232 
	C1050.112305,204.954208 1056.050415,203.315659 1061.755981,201.083328 
	C1063.207886,200.515320 1064.826538,198.068695 1064.838745,196.473648 
	C1065.014648,173.312180 1065.195435,150.144501 1064.828125,126.986984 
	C1064.501343,106.379517 1053.783447,94.124657 1033.649658,90.244789 
	C1031.853394,89.898643 1030.034668,89.625793 1028.213623,89.457352 
	C1014.062866,88.148438 1000.136169,88.286934 987.969788,97.139572 
	C977.712585,104.603035 973.011902,114.871986 972.812683,127.587692 
	C982.074951,127.587692 990.789429,127.587692 999.438477,127.587692 
	C1001.006042,116.969421 1004.600037,112.489639 1013.033142,111.321327 
	C1016.603699,110.826675 1020.359436,111.067383 1023.960510,111.526817 
	C1030.279053,112.333000 1034.480957,115.990364 1035.200684,122.421829 
	C1035.944214,129.065704 1035.982300,135.788559 1036.359375,143.062378 
	C1023.726257,138.552063 1011.860168,136.995361 999.548584,138.960037 
	C984.015564,141.438812 972.643860,150.640335 969.892883,163.420486 
	C965.303345,184.742096 976.995300,202.789749 998.825623,207.941040 
	C1013.762756,211.465744 1028.610840,209.691498 1044.260620,206.813232 
M733.980042,100.159332 
	C733.935120,127.801651 734.240967,155.451553 733.644226,183.081940 
	C733.450134,192.065613 734.718445,199.661743 741.786377,205.591141 
	C742.735229,206.387177 743.836304,207.550003 744.893555,207.579269 
	C751.505127,207.762405 758.124207,207.671722 765.206055,207.671722 
	C765.206055,205.275253 765.206055,203.477432 765.206055,201.679611 
	C765.206116,175.868591 765.285828,150.057037 765.113037,124.247185 
	C765.089417,120.708450 766.326355,119.033417 769.519653,118.273071 
	C786.592285,114.208008 795.794434,118.237640 795.792969,137.441895 
	C795.792847,138.774078 795.793884,140.106262 795.793884,141.438446 
	C795.794006,161.587692 795.793945,181.736938 795.793945,201.886185 
	C795.793945,203.655151 795.794006,205.424118 795.794006,207.315063 
	C806.662415,207.315063 816.874512,207.315063 826.924683,207.315063 
	C827.224670,206.648911 827.476929,206.351654 827.474854,206.056198 
	C827.281067,178.424332 827.761108,150.763977 826.621094,123.170593 
	C825.812073,103.591721 814.326111,92.663841 795.032898,89.884613 
	C780.151611,87.740921 765.439392,88.944572 751.001343,92.731903 
	C745.190002,94.256317 739.719360,97.079224 733.980042,100.159332 
M834.053467,122.733109 
	C834.034668,137.688889 833.030823,152.725174 834.244995,167.580185 
	C835.781738,186.382095 844.965759,200.910461 863.871948,206.843628 
	C877.056641,210.981277 890.581421,210.239380 903.571045,205.407303 
	C917.067627,200.386581 922.824646,189.504776 924.909485,175.333420 
	C915.580750,175.333420 906.641785,175.245041 897.709656,175.452667 
	C896.670593,175.476807 895.318359,176.949188 894.707947,178.073990 
	C890.795105,185.284103 886.002930,187.840118 877.498657,186.982758 
	C871.340271,186.361893 866.634705,182.343994 865.054688,175.115891 
	C863.872864,169.710052 863.770813,164.068192 863.121399,157.899475 
	C884.341370,157.899475 904.568054,157.899475 926.197876,157.899475 
	C925.138550,144.395966 925.147827,131.354919 922.867188,118.727440 
	C919.926819,102.446693 908.650574,93.210594 892.675171,90.110802 
	C887.022705,89.014015 881.076111,88.844215 875.298828,89.086525 
	C855.067139,89.935112 838.656738,99.424774 834.053467,122.733109 
M669.184387,161.339813 
	C676.533997,162.294159 683.921021,163.031952 691.217163,164.295105 
	C694.812378,164.917511 696.850159,167.271103 696.270752,171.469528 
	C695.864563,174.413010 695.996460,177.478210 696.296021,180.447906 
	C696.413208,181.609650 697.450256,183.392212 698.400269,183.645096 
	C707.167297,185.978821 716.007080,188.039276 724.861572,190.187927 
	C724.864380,190.172943 725.035278,189.692215 725.035522,189.211411 
	C725.044800,168.713257 725.186035,148.213715 724.993774,127.717316 
	C724.797852,106.828377 714.860413,94.831627 694.554138,90.434639 
	C692.443237,89.977562 690.296387,89.610153 688.146851,89.420135 
	C673.639526,88.137672 659.400574,88.371223 647.160400,97.909447 
	C637.494385,105.441750 633.169128,115.484024 632.952026,127.713882 
	C642.265930,127.713882 650.867371,127.713882 659.415283,127.713882 
	C661.488159,116.671341 664.963623,112.322937 673.392700,111.310326 
	C677.283081,110.842957 681.358521,111.299789 685.279053,111.846687 
	C690.841858,112.622704 694.509460,116.133080 695.204773,121.613808 
	C696.075806,128.479919 696.127747,135.449951 696.563049,142.884369 
	C693.472107,141.970261 691.275085,141.259537 689.045654,140.671036 
	C673.915833,136.677155 659.032593,136.660370 644.844604,144.104019 
	C631.737366,150.980652 624.752563,167.582321 632.067017,184.182404 
	C641.405090,183.401871 650.788879,182.617508 660.278137,181.824341 
	C654.140991,169.449631 656.357178,164.041061 669.184387,161.339813 
M96.804214,66.864990 
	C98.223221,72.146301 100.157097,77.350784 100.958893,82.724197 
	C102.898056,95.720093 104.051094,108.833801 106.015915,121.825172 
	C107.546562,131.945755 113.065407,139.672989 122.160950,144.601532 
	C131.321564,149.565308 141.328659,150.655563 151.828644,151.111847 
	C151.978729,149.345001 152.208435,147.894226 152.209244,146.443329 
	C152.221329,124.781715 152.244354,103.119896 152.156143,81.458572 
	C152.139221,77.306618 151.805923,73.140320 151.356476,69.009155 
	C150.537155,61.478130 145.984344,56.923218 138.936859,55.072681 
	C134.624908,53.940449 130.105759,53.407040 125.645287,53.093121 
	C122.299194,52.857635 121.047462,51.841381 122.506973,48.204552 
	C134.869263,48.204552 147.308762,48.204552 159.748260,48.204552 
	C159.836288,47.901123 159.924301,47.597694 160.012329,47.294266 
	C152.203461,43.348488 144.394608,39.402714 135.747910,35.033581 
	C136.417175,32.830135 137.422318,29.520906 138.411758,26.263390 
	C131.043686,25.400175 129.117813,31.288061 126.800606,36.691906 
	C126.428879,36.441906 126.057144,36.191910 125.685410,35.941910 
	C126.307640,32.417423 126.929871,28.892937 127.526016,25.516222 
	C126.457870,25.281961 125.267715,25.020947 125.235161,25.013805 
	C122.308144,26.366568 120.089119,27.392118 117.155853,28.747765 
	C117.585938,25.651743 117.810493,24.035259 118.154701,21.557421 
	C115.524651,23.988920 113.509018,25.852386 111.423019,27.780903 
	C111.053818,27.110174 110.879257,26.619516 110.563751,26.248816 
	C108.869682,24.258408 107.140533,22.297855 105.423508,20.326992 
	C103.780525,21.989204 101.637894,23.385391 100.585472,25.362032 
	C97.007294,32.082504 93.818741,39.010239 90.451103,45.843903 
	C90.347267,46.054611 89.910057,46.101028 89.499718,46.280155 
	C89.265686,45.133385 89.037392,44.014744 88.809097,42.896099 
	C88.530968,42.865337 88.252831,42.834576 87.974701,42.803810 
	C87.293060,45.092449 86.611420,47.381092 86.028435,49.338512 
	C84.432564,49.121872 83.084190,48.938828 81.735825,48.755779 
	C82.474289,49.904793 83.084991,51.165195 83.973053,52.183773 
	C88.082443,56.897114 92.268883,61.543274 96.804214,66.864990 
M964.809692,89.500015 
	C964.809692,75.749939 964.809692,61.999859 964.809692,48.267105 
	C953.792969,48.267105 943.529297,48.267105 933.068909,48.267105 
	C933.068909,101.398811 933.068909,154.258881 933.068909,207.263428 
	C943.716309,207.263428 954.083557,207.263428 964.809570,207.263428 
	C964.809570,168.058258 964.809570,129.279144 964.809692,89.500015 
M509.662170,119.262047 
	C508.687408,125.122017 506.961487,130.970505 506.871765,136.843994 
	C506.536255,158.811539 506.731995,180.787277 506.745605,202.759933 
	C506.746521,204.217392 506.890808,205.674774 506.975067,207.256744 
	C517.660828,207.256744 528.018372,207.256744 538.756409,207.256744 
	C538.756409,205.016068 538.756348,203.204987 538.756409,201.393890 
	C538.757385,179.754150 538.707703,158.114243 538.780518,136.474747 
	C538.817505,125.477432 543.196960,121.148811 554.263977,120.938507 
	C559.422424,120.840477 564.587280,121.007477 569.742004,120.835968 
	C571.051514,120.792389 573.026062,120.284615 573.519958,119.361458 
	C578.193481,110.625214 582.612854,101.752998 587.540649,92.064316 
	C571.079895,92.628990 555.455383,90.578300 540.133362,94.690422 
	C526.686768,98.299232 515.782593,105.249054 509.662170,119.262047 
M650.664856,193.128525 
	C634.032410,195.446457 617.292358,197.180664 600.793213,200.221756 
	C577.186462,204.572906 554.236694,211.414581 532.536865,221.919220 
	C524.265198,225.923416 516.338501,230.531860 510.504944,237.925140 
	C506.928253,242.458099 505.311798,247.527985 506.650269,253.327942 
	C507.453796,256.809937 509.615692,258.457397 513.145996,258.067596 
	C516.739075,257.670837 517.853027,255.396378 518.415405,251.953003 
	C518.907288,248.940720 519.918701,245.077728 522.092712,243.450562 
	C528.696411,238.507919 535.518555,233.356842 543.064636,230.255371 
	C588.936157,211.401978 636.704895,202.361923 686.353699,205.278656 
	C695.492554,205.815552 704.781372,208.308533 713.438782,211.448624 
	C725.662720,215.882339 729.388367,227.722809 723.094055,239.204956 
	C721.355713,242.375992 719.308655,245.747528 716.532776,247.909302 
	C708.830383,253.907669 701.285217,260.667114 692.549377,264.651581 
	C678.556519,271.033844 663.687927,275.518982 649.114258,280.589722 
	C645.219604,281.944824 642.917664,284.039703 643.861694,288.214722 
	C644.789612,292.318542 648.047913,293.240479 651.651672,292.334503 
	C675.531433,286.331146 698.691589,278.373718 718.060364,262.623871 
	C724.480713,257.403137 730.280273,250.591461 734.246521,243.347916 
	C743.264832,226.877884 737.138245,209.639938 720.284851,201.426849 
	C715.541809,199.115448 710.426941,197.349548 705.296936,196.089340 
	C687.622375,191.747528 669.608521,192.458405 650.664856,193.128525 
M589.186584,182.434692 
	C589.186584,185.508347 589.186584,188.581985 589.186584,191.835876 
	C600.184937,189.731842 610.416748,187.774445 620.520264,185.841599 
	C620.520264,154.472855 620.520264,123.434250 620.520264,92.580070 
	C609.872375,92.580070 599.650696,92.580070 589.186768,92.580070 
	C589.186768,122.500221 589.186768,151.977554 589.186584,182.434692 
M645.174438,256.731598 
	C648.385559,247.830765 651.814758,238.998352 654.644043,229.977783 
	C655.296631,227.897202 654.502625,224.752182 653.220215,222.893158 
	C652.385498,221.683075 648.977051,220.989868 647.593933,221.719208 
	C645.646729,222.746063 643.859985,225.085068 643.124329,227.244461 
	C636.273865,247.352203 628.893494,267.328888 623.239746,287.778442 
	C619.103577,302.738861 617.140808,318.321228 614.614258,333.692963 
	C613.843323,338.383545 616.587036,341.227692 620.489563,341.204010 
	C625.023193,341.176514 626.378174,338.196716 626.660461,334.302704 
	C626.924683,330.657074 626.980286,326.979706 627.511169,323.372742 
	C630.839600,300.758484 637.818970,279.101410 645.174438,256.731598 
M841.858032,251.199188 
	C849.951111,249.838348 854.523682,245.013321 855.733582,236.557617 
	C856.452209,231.535065 854.662170,228.313538 850.801575,227.681992 
	C846.778198,227.023819 844.768555,229.014816 843.837769,234.581406 
	C843.066345,239.194717 840.821716,240.875427 836.526855,238.986618 
	C833.478210,237.645828 830.739319,235.280701 828.310669,232.912781 
	C822.247131,227.000687 815.230835,224.244400 806.973877,226.520294 
	C799.219666,228.657578 795.624268,234.755768 794.132935,242.217834 
	C793.218506,246.793243 795.109009,250.060379 798.943176,250.555145 
	C802.992981,251.077713 804.711853,248.528931 806.061707,245.066177 
	C807.056580,242.513916 808.475891,239.210678 810.617737,238.227020 
	C814.239075,236.563858 817.608276,238.834015 820.109619,241.887039 
	C825.529663,248.502533 832.515503,251.651871 841.858032,251.199188 
M615.011108,49.365147 
	C608.533325,45.024872 601.863037,44.676037 595.456360,49.174187 
	C589.850342,53.110165 587.263062,58.740265 588.510864,65.662514 
	C589.868103,73.191971 595.475159,78.343201 603.043152,79.351357 
	C610.060547,80.286156 617.154114,76.451118 620.306091,70.018379 
	C623.713135,63.065102 622.075256,56.063694 615.011108,49.365147 
M133.170334,252.181183 
	C136.359116,255.466644 140.373383,257.702179 144.778427,256.621765 
	C153.201324,254.555923 161.424561,251.676041 169.730652,249.134003 
	C169.626404,248.878052 169.522141,248.622101 169.417892,248.366150 
	C156.693481,248.366150 143.969086,248.366150 130.651596,248.366150 
	C131.491959,249.799927 132.043381,250.740738 133.170334,252.181183 
M178.144623,48.136940 
	C186.243042,48.136940 194.341461,48.136940 202.439880,48.136940 
	C199.712128,45.567612 197.070953,43.561340 194.092484,42.598236 
	C190.723206,41.508766 187.030212,41.461720 183.516327,40.767281 
	C179.512268,39.975971 176.320221,43.656406 178.144623,48.136940 
M178.803223,248.044556 
	C177.073868,248.044556 175.344498,248.044556 173.615143,248.044556 
	C173.386993,248.618027 173.158859,249.191483 172.930710,249.764954 
	C175.595535,251.262314 178.096069,253.381195 180.956802,254.137466 
	C188.730042,256.192444 195.131531,251.929367 201.890121,249.467773 
	C201.833084,248.993378 201.776047,248.518967 201.719009,248.044571 
	C194.388092,248.044571 187.057175,248.044571 178.803223,248.044556 
M740.289001,241.854050 
	C737.589050,246.649673 737.956238,249.554550 741.509094,250.108978 
	C745.588623,250.745621 748.754211,248.833740 750.212158,245.146103 
	C750.852539,243.526428 749.932007,241.289642 749.720215,239.333054 
	C746.859558,239.878204 743.998230,240.419708 741.140503,240.979813 
	C741.004944,241.006378 740.901672,241.197891 740.289001,241.854050 
M950.722473,249.768875 
	C952.208923,248.497299 954.361450,247.492691 955.006287,245.883789 
	C955.744019,244.043228 955.141663,241.665588 955.121521,239.521301 
	C952.636902,239.658310 949.340027,238.867493 947.865540,240.158371 
	C945.851929,241.921188 945.225769,245.268906 944.004883,247.937210 
	C945.980896,248.623810 947.956909,249.310410 950.722473,249.768875 
z"/>
<path fill="#379F88" opacity="1.000000" stroke="none" 
	d="
M1123.128296,315.139374 
	C1131.809448,313.081146 1138.906494,308.292816 1145.247559,302.236420 
	C1149.094971,298.561829 1152.332642,298.043884 1155.193604,300.763550 
	C1158.015869,303.446442 1157.595215,306.888702 1153.734131,310.624969 
	C1143.913330,320.128387 1132.339844,326.251587 1118.854248,328.863159 
	C1116.499878,329.319153 1113.886963,330.619843 1112.272583,332.350525 
	C1104.053345,341.161621 1094.154785,345.154602 1082.197632,343.532043 
	C1072.551270,342.223053 1066.188232,336.711853 1062.798096,326.016663 
	C1061.359497,328.015686 1060.690674,329.354401 1059.661011,330.300323 
	C1056.358154,333.334625 1053.158691,336.568146 1049.485596,339.094238 
	C1042.710815,343.753418 1035.238037,345.928101 1027.375122,341.957703 
	C1019.378052,337.919647 1016.616394,330.311768 1017.269165,322.229889 
	C1018.188293,310.850067 1020.515137,299.582794 1022.281006,288.273804 
	C1022.528198,286.690796 1023.008057,285.144135 1023.399719,283.498627 
	C1017.005005,285.317169 1010.939880,288.611237 1005.027100,288.357452 
	C996.047974,287.972107 993.115540,292.450928 990.046997,299.522491 
	C984.581238,312.118683 976.911377,323.528320 966.638855,332.796692 
	C962.502441,336.528717 957.722046,339.951721 952.644226,342.153748 
	C941.005981,347.200897 930.433472,341.466980 927.319031,329.146240 
	C926.995850,327.867706 926.853821,326.543365 926.469543,324.328369 
	C924.895386,325.650665 923.710083,326.605988 922.568787,327.611206 
	C911.023926,337.779999 897.964600,343.867676 882.178589,343.126648 
	C869.429382,342.528198 859.109192,338.256073 853.905823,325.443146 
	C849.589172,329.472321 845.738464,333.800568 841.155579,337.117096 
	C837.340820,339.877808 832.867859,342.268707 828.332275,343.386383 
	C817.410645,346.077850 808.541809,339.175781 809.206421,327.968781 
	C809.763000,318.584961 811.960022,309.271271 813.794739,299.998505 
	C815.421631,291.775940 817.549438,283.652527 819.456116,275.485321 
	C818.992371,275.222229 818.528625,274.959106 818.064880,274.696014 
	C815.664612,276.629669 812.760803,278.179901 810.947937,280.560760 
	C801.080383,293.520172 791.290955,306.549164 781.877197,319.839386 
	C777.660400,325.792694 774.333923,332.383270 770.699585,338.739594 
	C769.072266,341.585815 767.244019,344.941132 763.657227,343.751587 
	C761.006165,342.872375 759.026367,339.969208 756.344299,337.613708 
	C754.170715,338.758179 750.813965,340.986023 747.140137,342.375641 
	C735.042053,346.951782 724.594360,340.980713 721.958313,328.308655 
	C719.788452,317.877991 721.793457,307.679291 724.201843,297.668457 
	C726.647705,287.501556 730.013000,277.552856 733.069885,267.537384 
	C734.217468,263.777466 736.530884,261.331665 740.847961,262.557709 
	C744.586182,263.619415 745.512817,266.782104 744.286865,271.496765 
	C740.569031,285.795105 736.775818,300.082886 733.564636,314.497894 
	C732.697754,318.389374 733.355896,322.799377 734.102539,326.825134 
	C734.987000,331.593933 738.068481,333.045227 742.663574,331.330444 
	C744.811401,330.528961 746.972961,329.405487 748.716309,327.938354 
	C758.935852,319.338074 766.951782,308.994659 771.846985,296.523224 
	C775.490540,287.240692 778.579407,277.739716 781.881409,268.324188 
	C783.232056,264.472900 785.363098,261.702271 789.943176,262.929230 
	C793.791687,263.960205 794.911194,267.427032 793.220337,272.321564 
	C791.664062,276.826355 790.077454,281.320648 788.504211,285.819550 
	C788.901855,286.071533 789.299561,286.323517 789.697205,286.575500 
	C791.405884,284.535095 792.966553,282.344727 794.851990,280.483276 
	C799.925842,275.473907 804.826111,270.210602 810.392578,265.802246 
	C815.031555,262.128479 820.828979,260.798065 826.213928,264.472137 
	C831.482300,268.066620 831.747070,273.786682 830.588257,279.366943 
	C827.748413,293.042175 824.581604,306.649231 821.606750,320.296875 
	C821.219849,322.071838 821.066772,323.920776 821.014954,325.741455 
	C820.842407,331.801605 823.627258,333.831757 828.943420,330.765289 
	C833.197815,328.311340 837.606384,325.299561 840.477722,321.442017 
	C846.789978,312.961945 852.816650,304.133820 857.788574,294.822327 
	C865.864929,279.696777 876.055603,267.273499 893.365295,262.851440 
	C904.709778,259.953308 912.463257,266.506836 912.113281,278.152283 
	C911.812988,288.143982 907.187195,296.362274 900.824951,303.661163 
	C891.706604,314.121704 880.127197,320.184021 865.993713,321.898773 
	C867.469604,326.734161 871.002930,328.727966 875.002991,329.849701 
	C885.481750,332.788239 895.497070,331.264160 904.847473,325.840729 
	C914.272888,320.373779 921.556763,312.615509 927.097168,303.338989 
	C928.742126,300.584900 929.176208,297.104248 930.144958,293.950348 
	C932.683411,285.686157 935.112366,277.386719 937.775635,269.163116 
	C939.672302,263.306976 942.254883,261.346497 945.904114,262.457672 
	C950.123169,263.742310 950.670959,266.887726 949.023743,273.288818 
	C945.303406,287.745941 941.882874,302.283234 938.588806,316.844116 
	C938.023438,319.343048 938.424316,322.160583 938.831177,324.760132 
	C939.927124,331.762360 943.705078,333.885254 950.143005,330.717285 
	C953.357239,329.135620 956.357605,326.769836 958.882385,324.197083 
	C969.766113,313.106232 977.087341,299.720825 983.428833,285.295685 
	C981.764587,284.013153 980.155823,282.893158 978.681946,281.617340 
	C971.140198,275.088684 966.930420,267.196686 969.018616,256.925171 
	C970.373596,250.260147 975.723816,244.863968 981.474854,244.096619 
	C987.394653,243.306747 993.369812,246.390701 995.726135,253.512939 
	C998.118286,260.743286 998.728699,268.563080 1000.297180,277.091156 
	C1004.569885,277.847046 1009.907349,275.748444 1014.899658,273.351959 
	C1020.266479,270.775665 1025.265137,267.395782 1030.288696,264.155823 
	C1033.021484,262.393250 1035.635010,261.229309 1038.510864,263.473877 
	C1041.268433,265.625946 1041.141846,268.296722 1040.261719,271.547668 
	C1036.487793,285.487793 1032.742310,299.449097 1029.612061,313.541626 
	C1028.676514,317.753510 1029.287354,322.504730 1030.070435,326.850159 
	C1030.937256,331.660767 1034.015869,333.046783 1038.625366,331.298859 
	C1040.765381,330.487396 1042.911133,329.331390 1044.636719,327.846405 
	C1053.820801,319.942963 1061.346313,310.750732 1066.249023,299.529388 
	C1070.373901,290.088074 1075.350342,281.313446 1085.490356,276.911285 
	C1086.424805,276.505585 1087.041870,275.300690 1087.728882,274.407349 
	C1089.248291,272.431702 1090.518188,270.223297 1092.241943,268.452393 
	C1102.028076,258.398071 1116.447266,260.847229 1122.122559,273.662598 
	C1127.354492,285.476898 1126.496338,297.692322 1123.648804,309.917755 
	C1123.347046,311.213104 1122.913452,312.477722 1122.390503,314.325806 
	C1122.536133,314.976471 1122.832153,315.057922 1123.128296,315.139374 
M1097.156250,309.123474 
	C1099.648315,313.282745 1102.909912,316.345978 1108.395020,317.008240 
	C1113.513550,305.520294 1115.715210,293.789276 1112.153198,281.611023 
	C1111.337402,278.822052 1108.312378,274.601685 1106.459473,274.680756 
	C1103.682251,274.799194 1100.051636,277.564697 1098.524658,280.209503 
	C1093.357910,289.158081 1092.463623,298.733643 1097.156250,309.123474 
M883.414795,280.864227 
	C874.495667,288.476776 868.284668,297.699402 865.608154,309.986359 
	C882.340149,306.970428 893.273071,298.191589 899.118896,283.153198 
	C899.709473,281.634094 899.925720,279.932190 900.090515,278.292511 
	C900.442505,274.789703 899.114441,272.971863 895.482239,274.617035 
	C891.570190,276.388947 887.792664,278.457886 883.414795,280.864227 
M1074.335449,315.010101 
	C1073.999634,320.904541 1073.678711,326.937439 1079.756958,330.408081 
	C1085.456177,333.662262 1093.922241,332.162720 1099.708496,327.159424 
	C1086.946899,320.920929 1082.955566,309.550018 1082.030884,296.408905 
	C1081.528320,296.333160 1081.025757,296.257416 1080.523193,296.181671 
	C1078.523438,302.181641 1076.523804,308.181580 1074.335449,315.010101 
M986.957642,265.690002 
	C985.953369,262.433472 984.949036,259.176971 983.636169,254.919815 
	C978.711914,262.178314 980.609314,269.210388 986.981262,271.599518 
	C986.981262,269.854340 986.981262,268.199402 986.957642,265.690002 
M788.919495,287.426453 
	C788.729797,287.349823 788.540100,287.273193 788.350403,287.196594 
	C788.403625,287.396820 788.456848,287.597076 788.919495,287.426453 
z"/>
<path fill="#C83587" opacity="1.000000" stroke="none" 
	d="
M392.372498,72.760788 
	C393.722748,79.251358 395.798126,85.391144 395.905426,91.565132 
	C396.307495,114.705780 395.550964,137.872162 396.203766,161.001358 
	C396.934387,186.887665 381.432861,204.175735 356.876770,206.375854 
	C335.285034,208.310379 313.382904,206.780243 291.306946,206.780243 
	C291.306946,154.373337 291.306946,101.523018 291.306946,48.361504 
	C292.710938,48.269535 293.995514,48.096912 295.277466,48.114635 
	C315.744049,48.397537 336.265350,47.890938 356.658630,49.271431 
	C372.162933,50.320976 384.885376,57.748405 392.372498,72.760788 
M358.759064,148.498962 
	C358.758728,129.686005 358.804565,110.872894 358.737701,92.060181 
	C358.706329,83.226326 353.827606,77.302681 345.227722,76.367630 
	C339.842865,75.782135 334.342529,76.258652 328.620697,76.258652 
	C328.620697,110.572220 328.620697,144.595764 328.620697,178.845825 
	C334.401215,178.845825 339.904297,179.252274 345.323212,178.750320 
	C353.399658,178.002213 358.476685,172.159256 358.727142,163.981583 
	C358.874847,159.157974 358.757141,154.326202 358.759064,148.498962 
z"/>
<path fill="#349E87" opacity="1.000000" stroke="none" 
	d="
M57.684029,52.109375 
	C57.282909,57.706745 56.812382,63.300362 56.508957,68.903023 
	C56.349007,71.856476 56.480679,74.825729 57.089966,77.802368 
	C58.841801,69.897804 60.593639,61.993248 62.525833,53.274899 
	C69.033768,57.150040 70.684280,62.006603 71.060364,67.431366 
	C72.004654,81.052574 72.645828,94.696358 73.714989,108.307022 
	C76.063713,138.206848 95.282883,152.095490 117.218094,157.724548 
	C126.179062,160.024155 135.570602,160.662079 144.777939,161.973953 
	C147.042603,162.296616 149.353073,162.297867 151.868347,162.461594 
	C151.990448,164.163910 152.172226,165.454895 152.162094,166.744354 
	C152.018112,185.073517 151.805664,203.402237 151.697525,221.731567 
	C151.606995,237.074966 146.330109,241.650757 128.975159,242.729752 
	C126.975334,242.854065 124.699966,238.546341 122.552353,236.293503 
	C122.864204,236.007309 123.176056,235.721130 123.487900,235.434937 
	C122.049973,235.434937 120.612045,235.434937 117.791809,235.434937 
	C117.791809,247.991470 117.791809,260.668854 117.791809,274.416809 
	C113.446404,273.812836 110.601234,273.417358 107.259811,272.952942 
	C104.460938,276.859741 103.568001,277.126648 98.760208,274.807098 
	C97.453850,278.317566 88.922676,280.079102 86.409523,277.638123 
	C85.034012,278.634491 83.708084,279.594940 82.382156,280.555359 
	C81.226120,278.885834 79.359055,277.346436 79.026009,275.526337 
	C76.242104,260.311798 73.740265,245.045685 71.137535,229.701752 
	C67.713905,229.701752 64.627754,229.701752 61.541611,229.701752 
	C60.448181,229.496307 60.747623,234.239990 57.960094,230.590652 
	C56.118103,231.122421 54.223629,232.234222 52.639832,231.895096 
	C51.812328,231.717911 51.123127,229.003952 51.065533,227.410629 
	C50.392227,208.783722 49.002373,190.116867 49.771465,171.542130 
	C50.014778,165.665787 45.279892,159.421982 50.274338,153.765747 
	C46.817421,149.906647 48.327335,145.244186 48.169846,140.845093 
	C47.892143,133.088120 47.402283,125.333870 47.338474,117.575706 
	C47.291592,111.875191 47.486965,106.137695 48.109627,100.475540 
	C48.882706,93.445602 49.040585,85.988846 51.689922,79.646118 
	C53.569027,75.147377 54.511784,71.788177 52.326904,67.610085 
	C52.251518,67.465927 52.144234,67.186256 52.188519,67.153275 
	C58.099678,62.750103 52.353485,56.671303 54.432262,51.735744 
	C54.533051,51.496437 54.961819,51.395271 55.748520,51.361801 
	C56.734135,51.699005 57.209080,51.904190 57.684029,52.109375 
z"/>
<path fill="#349E87" opacity="1.000000" stroke="none" 
	d="
M280.621033,132.378357 
	C282.307404,135.633057 283.092834,138.809570 280.534729,142.110672 
	C279.920807,142.902924 279.588959,145.056015 279.951416,145.286285 
	C283.666260,147.646484 281.156708,150.674698 281.035187,153.410599 
	C279.973480,177.311737 278.900391,201.212357 277.827698,225.113007 
	C277.742310,227.016006 277.634552,228.917984 277.514496,231.263809 
	C272.200073,226.667526 272.834564,227.403656 267.564819,231.945755 
	C264.496948,234.589996 262.451355,238.895706 257.420471,239.705795 
	C253.810883,240.287018 250.273926,242.383850 247.114243,244.435501 
	C242.802856,247.235001 237.295746,246.055817 233.047821,249.565994 
	C231.029449,251.233856 227.126770,251.026031 224.108841,250.903122 
	C222.673386,250.844650 220.715378,249.288940 220.033569,247.900879 
	C218.384628,244.543854 217.346420,240.886841 215.363647,236.807190 
	C215.260376,244.110764 211.423492,244.536530 206.165482,243.279404 
	C202.310455,242.357712 198.174545,242.506210 194.396194,241.390656 
	C186.862167,239.166245 181.902512,234.261917 181.848663,225.961395 
	C181.712753,205.009354 181.803619,184.055847 181.803619,162.802795 
	C189.591232,161.912659 198.174454,161.800156 206.282852,159.780991 
	C216.029602,157.353897 225.771683,154.131454 234.801071,149.772812 
	C250.341125,142.271393 256.845337,128.064880 258.806854,111.813217 
	C260.438934,98.291267 261.184662,84.646461 261.893555,71.033707 
	C262.527588,58.857296 264.575439,55.548519 276.494965,51.230713 
	C275.513092,49.062775 274.561737,46.962147 273.610352,44.861519 
	C273.151398,44.823120 272.692444,44.784721 272.233490,44.746323 
	C274.647644,40.759251 277.061798,36.772182 279.475952,32.785110 
	C279.927124,32.977936 280.378296,33.170765 280.829468,33.363590 
	C279.890594,38.742733 278.887421,44.111614 278.026398,49.503185 
	C276.311188,60.243389 278.189148,70.810486 279.251434,81.481483 
	C280.722687,96.261024 281.211304,111.139290 282.059631,125.978775 
	C282.166748,127.852859 281.904572,129.748047 281.383026,131.561188 
	C280.842041,131.785400 280.731537,132.081879 280.621033,132.378357 
z"/>
<path fill="#C83687" opacity="1.000000" stroke="none" 
	d="
M426.842957,127.975494 
	C419.735016,127.975487 413.104645,127.975487 405.902283,127.975487 
	C406.104767,114.933853 410.784241,104.671082 421.004333,97.190475 
	C433.145966,88.303413 447.069946,88.157860 461.216431,89.440598 
	C463.037048,89.605675 464.853943,89.885147 466.650909,90.225922 
	C486.996979,94.084351 497.709076,106.557442 497.929840,127.349258 
	C498.173920,150.334915 497.957733,173.325256 498.109833,196.312424 
	C498.128662,199.162567 497.100983,200.545151 494.629456,201.465698 
	C474.288849,209.041901 453.413483,212.480011 431.963867,207.853363 
	C410.186768,203.156067 398.807465,185.504288 402.935211,163.940552 
	C405.036316,152.964127 412.145325,146.044006 422.125610,142.032272 
	C435.990417,136.459091 450.103882,137.103958 464.212555,141.265625 
	C465.487183,141.641602 466.730804,142.121964 467.995483,142.533340 
	C468.136353,142.579163 468.321198,142.489807 469.526001,142.294418 
	C469.038208,135.246704 468.883026,128.025070 467.926422,120.911209 
	C467.274658,116.064278 463.844116,112.798988 458.954010,112.025978 
	C454.727783,111.357910 450.301819,110.841927 446.100525,111.361488 
	C437.635620,112.408325 433.966431,117.129181 432.518951,127.975502 
	C430.853912,127.975502 429.087219,127.975502 426.842957,127.975494 
M432.467224,165.036743 
	C427.440826,172.260727 430.474701,181.922318 439.224762,185.418518 
	C448.477570,189.115601 457.855286,187.774582 467.102325,185.048126 
	C467.874725,184.820374 468.968414,183.843292 468.986786,183.188324 
	C469.131592,178.034683 469.125458,172.872177 468.953003,167.719528 
	C468.929199,167.007309 467.867950,166.053696 467.068726,165.685226 
	C455.908936,160.540085 444.611755,158.519623 432.467224,165.036743 
z"/>
<path fill="#C83687" opacity="1.000000" stroke="none" 
	d="
M1043.841797,206.878937 
	C1028.610840,209.691498 1013.762756,211.465744 998.825623,207.941040 
	C976.995300,202.789749 965.303345,184.742096 969.892883,163.420486 
	C972.643860,150.640335 984.015564,141.438812 999.548584,138.960037 
	C1011.860168,136.995361 1023.726257,138.552063 1036.359375,143.062378 
	C1035.982300,135.788559 1035.944214,129.065704 1035.200684,122.421829 
	C1034.480957,115.990364 1030.279053,112.333000 1023.960510,111.526817 
	C1020.359436,111.067383 1016.603699,110.826675 1013.033142,111.321327 
	C1004.600037,112.489639 1001.006042,116.969421 999.438477,127.587692 
	C990.789429,127.587692 982.074951,127.587692 972.812683,127.587692 
	C973.011902,114.871986 977.712585,104.603035 987.969788,97.139572 
	C1000.136169,88.286934 1014.062866,88.148438 1028.213623,89.457352 
	C1030.034668,89.625793 1031.853394,89.898643 1033.649658,90.244789 
	C1053.783447,94.124657 1064.501343,106.379517 1064.828125,126.986984 
	C1065.195435,150.144501 1065.014648,173.312180 1064.838745,196.473648 
	C1064.826538,198.068695 1063.207886,200.515320 1061.755981,201.083328 
	C1056.050415,203.315659 1050.112305,204.954208 1043.841797,206.878937 
M1028.812988,186.458420 
	C1031.121948,185.658249 1035.319458,185.054489 1035.426514,184.025299 
	C1036.019775,178.321106 1035.649292,172.512543 1035.488281,166.743134 
	C1035.477295,166.352402 1034.516235,165.906540 1033.930298,165.625565 
	C1023.785767,160.761429 1013.337097,159.213776 1002.523376,163.117737 
	C998.694397,164.500107 996.841187,167.359207 996.901794,171.597168 
	C997.017273,179.681030 1002.227905,185.840256 1011.111084,186.827881 
	C1016.660034,187.444794 1022.351074,186.783783 1028.812988,186.458420 
z"/>
<path fill="#C93687" opacity="1.000000" stroke="none" 
	d="
M734.036865,99.735245 
	C739.719360,97.079224 745.190002,94.256317 751.001343,92.731903 
	C765.439392,88.944572 780.151611,87.740921 795.032898,89.884613 
	C814.326111,92.663841 825.812073,103.591721 826.621094,123.170593 
	C827.761108,150.763977 827.281067,178.424332 827.474854,206.056198 
	C827.476929,206.351654 827.224670,206.648911 826.924683,207.315063 
	C816.874512,207.315063 806.662415,207.315063 795.794006,207.315063 
	C795.794006,205.424118 795.793945,203.655151 795.793945,201.886185 
	C795.793945,181.736938 795.794006,161.587692 795.793884,141.438446 
	C795.793884,140.106262 795.792847,138.774078 795.792969,137.441895 
	C795.794434,118.237640 786.592285,114.208008 769.519653,118.273071 
	C766.326355,119.033417 765.089417,120.708450 765.113037,124.247185 
	C765.285828,150.057037 765.206116,175.868591 765.206055,201.679611 
	C765.206055,203.477432 765.206055,205.275253 765.206055,207.671722 
	C758.124207,207.671722 751.505127,207.762405 744.893555,207.579269 
	C743.836304,207.550003 742.735229,206.387177 741.786377,205.591141 
	C734.718445,199.661743 733.450134,192.065613 733.644226,183.081940 
	C734.240967,155.451553 733.935120,127.801651 734.036865,99.735245 
z"/>
<path fill="#C93687" opacity="1.000000" stroke="none" 
	d="
M834.106201,122.306625 
	C838.656738,99.424774 855.067139,89.935112 875.298828,89.086525 
	C881.076111,88.844215 887.022705,89.014015 892.675171,90.110802 
	C908.650574,93.210594 919.926819,102.446693 922.867188,118.727440 
	C925.147827,131.354919 925.138550,144.395966 926.197876,157.899475 
	C904.568054,157.899475 884.341370,157.899475 863.121399,157.899475 
	C863.770813,164.068192 863.872864,169.710052 865.054688,175.115891 
	C866.634705,182.343994 871.340271,186.361893 877.498657,186.982758 
	C886.002930,187.840118 890.795105,185.284103 894.707947,178.073990 
	C895.318359,176.949188 896.670593,175.476807 897.709656,175.452667 
	C906.641785,175.245041 915.580750,175.333420 924.909485,175.333420 
	C922.824646,189.504776 917.067627,200.386581 903.571045,205.407303 
	C890.581421,210.239380 877.056641,210.981277 863.871948,206.843628 
	C844.965759,200.910461 835.781738,186.382095 834.244995,167.580185 
	C833.030823,152.725174 834.034668,137.688889 834.106201,122.306625 
M889.173401,113.011520 
	C882.524536,110.017448 875.573975,109.413200 869.795349,114.052879 
	C862.269775,120.095337 863.553345,129.096024 863.412354,137.646683 
	C874.852844,137.646683 885.849854,137.646683 897.018555,137.646683 
	C896.740295,128.627869 897.776611,119.694717 889.173401,113.011520 
z"/>
<path fill="#C93687" opacity="1.000000" stroke="none" 
	d="
M668.765930,161.447205 
	C656.357178,164.041061 654.140991,169.449631 660.278137,181.824341 
	C650.788879,182.617508 641.405090,183.401871 632.067017,184.182404 
	C624.752563,167.582321 631.737366,150.980652 644.844604,144.104019 
	C659.032593,136.660370 673.915833,136.677155 689.045654,140.671036 
	C691.275085,141.259537 693.472107,141.970261 696.563049,142.884369 
	C696.127747,135.449951 696.075806,128.479919 695.204773,121.613808 
	C694.509460,116.133080 690.841858,112.622704 685.279053,111.846687 
	C681.358521,111.299789 677.283081,110.842957 673.392700,111.310326 
	C664.963623,112.322937 661.488159,116.671341 659.415283,127.713882 
	C650.867371,127.713882 642.265930,127.713882 632.952026,127.713882 
	C633.169128,115.484024 637.494385,105.441750 647.160400,97.909447 
	C659.400574,88.371223 673.639526,88.137672 688.146851,89.420135 
	C690.296387,89.610153 692.443237,89.977562 694.554138,90.434639 
	C714.860413,94.831627 724.797852,106.828377 724.993774,127.717316 
	C725.186035,148.213715 725.044800,168.713257 725.035522,189.211411 
	C725.035278,189.692215 724.864380,190.172943 724.861572,190.187927 
	C716.007080,188.039276 707.167297,185.978821 698.400269,183.645096 
	C697.450256,183.392212 696.413208,181.609650 696.296021,180.447906 
	C695.996460,177.478210 695.864563,174.413010 696.270752,171.469528 
	C696.850159,167.271103 694.812378,164.917511 691.217163,164.295105 
	C683.921021,163.031952 676.533997,162.294159 668.765930,161.447205 
z"/>
<path fill="#359E87" opacity="1.000000" stroke="none" 
	d="
M96.615967,66.539246 
	C92.268883,61.543274 88.082443,56.897114 83.973053,52.183773 
	C83.084991,51.165195 82.474289,49.904793 81.735825,48.755783 
	C83.084190,48.938828 84.432564,49.121872 86.028435,49.338512 
	C86.611420,47.381092 87.293060,45.092449 87.974701,42.803810 
	C88.252831,42.834576 88.530968,42.865337 88.809097,42.896099 
	C89.037392,44.014744 89.265686,45.133385 89.499718,46.280155 
	C89.910057,46.101028 90.347267,46.054611 90.451103,45.843903 
	C93.818741,39.010239 97.007294,32.082504 100.585472,25.362032 
	C101.637894,23.385391 103.780525,21.989204 105.423508,20.326992 
	C107.140533,22.297855 108.869682,24.258408 110.563751,26.248816 
	C110.879257,26.619516 111.053818,27.110174 111.423019,27.780903 
	C113.509018,25.852386 115.524651,23.988920 118.154701,21.557421 
	C117.810493,24.035259 117.585938,25.651743 117.155853,28.747765 
	C120.089119,27.392118 122.308144,26.366568 125.235161,25.013805 
	C125.267715,25.020947 126.457870,25.281961 127.526016,25.516222 
	C126.929871,28.892937 126.307640,32.417423 125.685410,35.941910 
	C126.057144,36.191910 126.428879,36.441906 126.800606,36.691906 
	C129.117813,31.288061 131.043686,25.400175 138.411758,26.263390 
	C137.422318,29.520906 136.417175,32.830135 135.747910,35.033581 
	C144.394608,39.402714 152.203461,43.348488 160.012329,47.294266 
	C159.924301,47.597694 159.836288,47.901123 159.748260,48.204552 
	C147.308762,48.204552 134.869263,48.204552 122.506973,48.204552 
	C121.047462,51.841381 122.299194,52.857635 125.645287,53.093121 
	C130.105759,53.407040 134.624908,53.940449 138.936859,55.072681 
	C145.984344,56.923218 150.537155,61.478130 151.356476,69.009155 
	C151.805923,73.140320 152.139221,77.306618 152.156143,81.458572 
	C152.244354,103.119896 152.221329,124.781715 152.209244,146.443329 
	C152.208435,147.894226 151.978729,149.345001 151.828644,151.111847 
	C141.328659,150.655563 131.321564,149.565308 122.160950,144.601532 
	C113.065407,139.672989 107.546562,131.945755 106.015915,121.825172 
	C104.051094,108.833801 102.898056,95.720093 100.958893,82.724197 
	C100.157097,77.350784 98.223221,72.146301 96.615967,66.539246 
z"/>
<path fill="#359E87" opacity="1.000000" stroke="none" 
	d="
M259.926331,47.558483 
	C254.482361,50.632359 248.378082,52.940678 243.736145,56.944424 
	C234.917252,64.550880 232.371323,75.453407 231.110764,86.550072 
	C229.908432,97.134048 229.014267,107.752968 227.978592,118.355942 
	C226.333420,135.198822 213.368225,147.725861 195.066269,149.930191 
	C190.521606,150.477585 185.909225,150.462646 181.005966,150.723312 
	C181.005966,131.000107 180.920090,112.185036 181.047058,93.371399 
	C181.099884,85.547112 181.500366,77.719948 181.936493,69.904907 
	C182.387161,61.829384 185.954193,57.294556 193.823975,55.263275 
	C198.311829,54.104916 203.022568,53.835258 207.574036,52.883678 
	C209.057159,52.573597 210.354019,51.372532 211.736053,50.578964 
	C210.435394,49.755951 209.150864,48.905483 207.824371,48.126453 
	C207.420456,47.889240 206.900940,47.848846 206.337433,47.691185 
	C207.986832,41.396889 209.552750,35.163280 211.316803,28.986246 
	C211.562164,28.127169 213.200760,26.803782 213.483643,26.962460 
	C214.938354,27.778440 216.160934,29.008280 216.822113,29.558746 
	C220.397354,30.330297 223.368698,30.971525 226.596588,31.668119 
	C226.465622,32.773056 226.259460,34.512390 225.932358,37.272148 
	C227.839157,34.737003 229.179153,32.955433 230.519150,31.173862 
	C230.970367,31.276100 231.421570,31.378338 231.872787,31.480576 
	C231.615189,36.085403 231.357590,40.690235 231.100006,45.295063 
	C231.274185,45.318851 231.448364,45.342640 231.622543,45.366428 
	C232.749146,41.481331 233.875763,37.596233 235.002365,33.711132 
	C235.535797,33.840527 236.069229,33.969921 236.602661,34.099316 
	C236.602661,36.588512 236.602661,39.077705 236.602661,41.612080 
	C241.795792,36.038921 246.379547,30.380146 246.590469,22.299591 
	C246.624115,21.011007 248.823746,19.778961 250.022018,18.520777 
	C250.543579,18.723368 251.065140,18.925959 251.586700,19.128551 
	C251.225586,23.356667 250.864487,27.584784 250.503372,31.812901 
	C250.799377,31.933044 251.095383,32.053192 251.391373,32.173336 
	C252.710541,29.031134 254.029724,25.888931 255.232834,23.023151 
	C257.633179,24.062574 259.786652,24.995102 263.133270,26.444296 
	C262.712952,30.519304 262.160645,35.873680 261.821167,41.616207 
	C262.033936,42.004360 262.011688,41.942142 261.684326,41.921066 
	C260.895966,42.618652 260.434967,43.337318 259.947174,44.405853 
	C259.922333,45.689980 259.924316,46.624233 259.926331,47.558483 
z"/>
<path fill="#C93687" opacity="1.000000" stroke="none" 
	d="
M964.809631,90.000015 
	C964.809570,129.279144 964.809570,168.058258 964.809570,207.263428 
	C954.083557,207.263428 943.716309,207.263428 933.068909,207.263428 
	C933.068909,154.258881 933.068909,101.398811 933.068909,48.267105 
	C943.529297,48.267105 953.792969,48.267105 964.809692,48.267105 
	C964.809692,61.999859 964.809692,75.749939 964.809631,90.000015 
z"/>
<path fill="#C93788" opacity="1.000000" stroke="none" 
	d="
M509.798706,118.900711 
	C515.782593,105.249054 526.686768,98.299232 540.133362,94.690422 
	C555.455383,90.578300 571.079895,92.628990 587.540649,92.064316 
	C582.612854,101.752998 578.193481,110.625214 573.519958,119.361458 
	C573.026062,120.284615 571.051514,120.792389 569.742004,120.835968 
	C564.587280,121.007477 559.422424,120.840477 554.263977,120.938507 
	C543.196960,121.148811 538.817505,125.477432 538.780518,136.474747 
	C538.707703,158.114243 538.757385,179.754150 538.756409,201.393890 
	C538.756348,203.204987 538.756409,205.016068 538.756409,207.256744 
	C528.018372,207.256744 517.660828,207.256744 506.975067,207.256744 
	C506.890808,205.674774 506.746521,204.217392 506.745605,202.759933 
	C506.731995,180.787277 506.536255,158.811539 506.871765,136.843994 
	C506.961487,130.970505 508.687408,125.122017 509.798706,118.900711 
z"/>
<path fill="#379F88" opacity="1.000000" stroke="none" 
	d="
M651.144287,193.105774 
	C669.608521,192.458405 687.622375,191.747528 705.296936,196.089340 
	C710.426941,197.349548 715.541809,199.115448 720.284851,201.426849 
	C737.138245,209.639938 743.264832,226.877884 734.246521,243.347916 
	C730.280273,250.591461 724.480713,257.403137 718.060364,262.623871 
	C698.691589,278.373718 675.531433,286.331146 651.651672,292.334503 
	C648.047913,293.240479 644.789612,292.318542 643.861694,288.214722 
	C642.917664,284.039703 645.219604,281.944824 649.114258,280.589722 
	C663.687927,275.518982 678.556519,271.033844 692.549377,264.651581 
	C701.285217,260.667114 708.830383,253.907669 716.532776,247.909302 
	C719.308655,245.747528 721.355713,242.375992 723.094055,239.204956 
	C729.388367,227.722809 725.662720,215.882339 713.438782,211.448624 
	C704.781372,208.308533 695.492554,205.815552 686.353699,205.278656 
	C636.704895,202.361923 588.936157,211.401978 543.064636,230.255371 
	C535.518555,233.356842 528.696411,238.507919 522.092712,243.450562 
	C519.918701,245.077728 518.907288,248.940720 518.415405,251.953003 
	C517.853027,255.396378 516.739075,257.670837 513.145996,258.067596 
	C509.615692,258.457397 507.453796,256.809937 506.650269,253.327942 
	C505.311798,247.527985 506.928253,242.458099 510.504944,237.925140 
	C516.338501,230.531860 524.265198,225.923416 532.536865,221.919220 
	C554.236694,211.414581 577.186462,204.572906 600.793213,200.221756 
	C617.292358,197.180664 634.032410,195.446457 651.144287,193.105774 
z"/>
<path fill="#C93888" opacity="1.000000" stroke="none" 
	d="
M589.186646,181.944794 
	C589.186768,151.977554 589.186768,122.500221 589.186768,92.580070 
	C599.650696,92.580070 609.872375,92.580070 620.520264,92.580070 
	C620.520264,123.434250 620.520264,154.472855 620.520264,185.841599 
	C610.416748,187.774445 600.184937,189.731842 589.186584,191.835876 
	C589.186584,188.581985 589.186584,185.508347 589.186646,181.944794 
z"/>
<path fill="#379F89" opacity="1.000000" stroke="none" 
	d="
M645.074097,257.113373 
	C637.818970,279.101410 630.839600,300.758484 627.511169,323.372742 
	C626.980286,326.979706 626.924683,330.657074 626.660461,334.302704 
	C626.378174,338.196716 625.023193,341.176514 620.489563,341.204010 
	C616.587036,341.227692 613.843323,338.383545 614.614258,333.692963 
	C617.140808,318.321228 619.103577,302.738861 623.239746,287.778442 
	C628.893494,267.328888 636.273865,247.352203 643.124329,227.244461 
	C643.859985,225.085068 645.646729,222.746063 647.593933,221.719208 
	C648.977051,220.989868 652.385498,221.683075 653.220215,222.893158 
	C654.502625,224.752182 655.296631,227.897202 654.644043,229.977783 
	C651.814758,238.998352 648.385559,247.830765 645.074097,257.113373 
z"/>
<path fill="#389F89" opacity="1.000000" stroke="none" 
	d="
M841.464355,251.245316 
	C832.515503,251.651871 825.529663,248.502533 820.109619,241.887039 
	C817.608276,238.834015 814.239075,236.563858 810.617737,238.227020 
	C808.475891,239.210678 807.056580,242.513916 806.061707,245.066177 
	C804.711853,248.528931 802.992981,251.077713 798.943176,250.555145 
	C795.109009,250.060379 793.218506,246.793243 794.132935,242.217834 
	C795.624268,234.755768 799.219666,228.657578 806.973877,226.520294 
	C815.230835,224.244400 822.247131,227.000687 828.310669,232.912781 
	C830.739319,235.280701 833.478210,237.645828 836.526855,238.986618 
	C840.821716,240.875427 843.066345,239.194717 843.837769,234.581406 
	C844.768555,229.014816 846.778198,227.023819 850.801575,227.681992 
	C854.662170,228.313538 856.452209,231.535065 855.733582,236.557617 
	C854.523682,245.013321 849.951111,249.838348 841.464355,251.245316 
z"/>
<path fill="#C93788" opacity="1.000000" stroke="none" 
	d="
M615.297485,49.598694 
	C622.075256,56.063694 623.713135,63.065102 620.306091,70.018379 
	C617.154114,76.451118 610.060547,80.286156 603.043152,79.351357 
	C595.475159,78.343201 589.868103,73.191971 588.510864,65.662514 
	C587.263062,58.740265 589.850342,53.110165 595.456360,49.174187 
	C601.863037,44.676037 608.533325,45.024872 615.297485,49.598694 
z"/>
<path fill="#3FA28C" opacity="1.000000" stroke="none" 
	d="
M132.882568,251.931366 
	C132.043381,250.740738 131.491959,249.799927 130.651596,248.366150 
	C143.969086,248.366150 156.693481,248.366150 169.417892,248.366150 
	C169.522141,248.622101 169.626404,248.878052 169.730652,249.134003 
	C161.424561,251.676041 153.201324,254.555923 144.778427,256.621765 
	C140.373383,257.702179 136.359116,255.466644 132.882568,251.931366 
z"/>
<path fill="#39A089" opacity="1.000000" stroke="none" 
	d="
M177.720673,48.118118 
	C176.320221,43.656406 179.512268,39.975971 183.516327,40.767281 
	C187.030212,41.461720 190.723206,41.508766 194.092484,42.598236 
	C197.070953,43.561340 199.712128,45.567612 202.439880,48.136940 
	C194.341461,48.136940 186.243042,48.136940 177.720673,48.118118 
z"/>
<path fill="#42A38E" opacity="1.000000" stroke="none" 
	d="
M179.264740,248.044556 
	C187.057175,248.044571 194.388092,248.044571 201.719009,248.044571 
	C201.776047,248.518967 201.833084,248.993378 201.890121,249.467773 
	C195.131531,251.929367 188.730042,256.192444 180.956802,254.137466 
	C178.096069,253.381195 175.595535,251.262314 172.930710,249.764954 
	C173.158859,249.191483 173.386993,248.618027 173.615143,248.044556 
	C175.344498,248.044556 177.073868,248.044556 179.264740,248.044556 
z"/>
<path fill="#4FAA96" opacity="1.000000" stroke="none" 
	d="
M260.354889,47.550591 
	C259.924316,46.624233 259.922333,45.689980 260.325928,44.556816 
	C261.158203,43.552654 261.584961,42.747398 262.011688,41.942142 
	C262.011688,41.942142 262.033936,42.004360 262.009949,42.026463 
	C263.417480,37.319023 264.848999,32.589478 266.280487,27.859936 
	C266.789429,27.922350 267.298401,27.984764 267.807343,28.047180 
	C267.486328,31.961100 267.165283,35.875019 266.844269,39.788940 
	C267.034393,39.834831 267.224548,39.880722 267.414673,39.926613 
	C268.559631,37.074089 269.704620,34.221569 270.849609,31.369049 
	C271.278656,31.504011 271.707733,31.638975 272.136810,31.773939 
	C271.550964,36.140331 271.065460,40.524704 270.289032,44.856934 
	C270.145203,45.659428 268.910614,46.691628 268.036133,46.856186 
	C265.659637,47.303379 263.206329,47.342075 260.354889,47.550591 
M266.006592,40.983746 
	C265.868439,41.454445 265.730316,41.925144 265.598175,43.117050 
	C265.950836,43.341011 266.303467,43.564968 266.656128,43.788925 
	C266.572449,42.938366 266.488770,42.087807 266.006592,40.983746 
z"/>
<path fill="#39A089" opacity="1.000000" stroke="none" 
	d="
M740.536194,241.583313 
	C740.901672,241.197891 741.004944,241.006378 741.140503,240.979813 
	C743.998230,240.419708 746.859558,239.878204 749.720215,239.333069 
	C749.932007,241.289642 750.852539,243.526428 750.212158,245.146103 
	C748.754211,248.833740 745.588623,250.745621 741.509094,250.108978 
	C737.956238,249.554550 737.589050,246.649673 740.536194,241.583313 
z"/>
<path fill="#379F88" opacity="1.000000" stroke="none" 
	d="
M950.327698,249.882935 
	C947.956909,249.310410 945.980896,248.623810 944.004883,247.937210 
	C945.225769,245.268906 945.851929,241.921188 947.865540,240.158371 
	C949.340027,238.867493 952.636902,239.658310 955.121582,239.521301 
	C955.141663,241.665588 955.744019,244.043228 955.006287,245.883789 
	C954.361450,247.492691 952.208923,248.497299 950.327698,249.882935 
z"/>
<path fill="#6FB8A7" opacity="1.000000" stroke="none" 
	d="
M57.745972,51.668282 
	C57.209080,51.904190 56.734135,51.699005 56.133347,51.261414 
	C56.169739,48.601715 56.331970,46.174419 56.494202,43.747124 
	C56.932106,43.778378 57.370014,43.809635 57.807919,43.840889 
	C57.807919,46.302990 57.807919,48.765087 57.745972,51.668282 
z"/>
<path fill="#FAFDFC" opacity="1.000000" stroke="none" 
	d="
M1097.004150,308.778625 
	C1092.463623,298.733643 1093.357910,289.158081 1098.524658,280.209503 
	C1100.051636,277.564697 1103.682251,274.799194 1106.459473,274.680756 
	C1108.312378,274.601685 1111.337402,278.822052 1112.153198,281.611023 
	C1115.715210,293.789276 1113.513550,305.520294 1108.395020,317.008240 
	C1102.909912,316.345978 1099.648315,313.282745 1097.004150,308.778625 
z"/>
<path fill="#FBFDFD" opacity="1.000000" stroke="none" 
	d="
M883.685669,280.630737 
	C887.792664,278.457886 891.570190,276.388947 895.482239,274.617035 
	C899.114441,272.971863 900.442505,274.789703 900.090515,278.292511 
	C899.925720,279.932190 899.709473,281.634094 899.118896,283.153198 
	C893.273071,298.191589 882.340149,306.970428 865.608154,309.986359 
	C868.284668,297.699402 874.495667,288.476776 883.685669,280.630737 
z"/>
<path fill="#F8FCFB" opacity="1.000000" stroke="none" 
	d="
M1074.429688,314.595825 
	C1076.523804,308.181580 1078.523438,302.181641 1080.523193,296.181671 
	C1081.025757,296.257416 1081.528320,296.333160 1082.030884,296.408905 
	C1082.955566,309.550018 1086.946899,320.920929 1099.708496,327.159424 
	C1093.922241,332.162720 1085.456177,333.662262 1079.756958,330.408081 
	C1073.678711,326.937439 1073.999634,320.904541 1074.429688,314.595825 
z"/>
<path fill="#F3F9F8" opacity="1.000000" stroke="none" 
	d="
M986.969482,266.117218 
	C986.981262,268.199402 986.981262,269.854340 986.981262,271.599518 
	C980.609314,269.210388 978.711914,262.178314 983.636169,254.919815 
	C984.949036,259.176971 985.953369,262.433472 986.969482,266.117218 
z"/>
<path fill="#FEFEFF" opacity="1.000000" stroke="none" 
	d="
M788.714722,287.611877 
	C788.456848,287.597076 788.403625,287.396820 788.350403,287.196594 
	C788.540100,287.273193 788.729797,287.349823 788.714722,287.611877 
z"/>
<path fill="#FEFEFF" opacity="1.000000" stroke="none" 
	d="
M1122.968384,314.978424 
	C1122.832153,315.057922 1122.536133,314.976471 1122.349121,314.712006 
	C1122.458252,314.528992 1122.808472,314.817474 1122.968384,314.978424 
z"/>
<path fill="#FEFAFC" opacity="1.000000" stroke="none" 
	d="
M358.758942,148.998535 
	C358.757141,154.326202 358.874847,159.157974 358.727142,163.981583 
	C358.476685,172.159256 353.399658,178.002213 345.323212,178.750320 
	C339.904297,179.252274 334.401215,178.845825 328.620697,178.845825 
	C328.620697,144.595764 328.620697,110.572220 328.620697,76.258652 
	C334.342529,76.258652 339.842865,75.782135 345.227722,76.367630 
	C353.827606,77.302681 358.706329,83.226326 358.737701,92.060181 
	C358.804565,110.872894 358.758728,129.686005 358.758942,148.998535 
z"/>
<path fill="#FEFEFF" opacity="1.000000" stroke="none" 
	d="
M280.744568,132.254669 
	C280.731537,132.081879 280.842041,131.785400 281.031647,131.684113 
	C281.110779,131.879288 280.868134,132.130997 280.744568,132.254669 
z"/>
<path fill="#FEFCFD" opacity="1.000000" stroke="none" 
	d="
M432.763977,164.783875 
	C444.611755,158.519623 455.908936,160.540085 467.068726,165.685226 
	C467.867950,166.053696 468.929199,167.007309 468.953003,167.719528 
	C469.125458,172.872177 469.131592,178.034683 468.986786,183.188324 
	C468.968414,183.843292 467.874725,184.820374 467.102325,185.048126 
	C457.855286,187.774582 448.477570,189.115601 439.224762,185.418518 
	C430.474701,181.922318 427.440826,172.260727 432.763977,164.783875 
z"/>
<path fill="#FEFCFD" opacity="1.000000" stroke="none" 
	d="
M1028.395752,186.577332 
	C1022.351074,186.783783 1016.660034,187.444794 1011.111084,186.827881 
	C1002.227905,185.840256 997.017273,179.681030 996.901794,171.597168 
	C996.841187,167.359207 998.694397,164.500107 1002.523376,163.117737 
	C1013.337097,159.213776 1023.785767,160.761429 1033.930298,165.625565 
	C1034.516235,165.906540 1035.477295,166.352402 1035.488281,166.743134 
	C1035.649292,172.512543 1036.019775,178.321106 1035.426514,184.025299 
	C1035.319458,185.054489 1031.121948,185.658249 1028.395752,186.577332 
z"/>
<path fill="#FEFCFD" opacity="1.000000" stroke="none" 
	d="
M889.500916,113.208763 
	C897.776611,119.694717 896.740295,128.627869 897.018555,137.646683 
	C885.849854,137.646683 874.852844,137.646683 863.412354,137.646683 
	C863.553345,129.096024 862.269775,120.095337 869.795349,114.052879 
	C875.573975,109.413200 882.524536,110.017448 889.500916,113.208763 
z"/>
<path fill="#FEFEFF" opacity="1.000000" stroke="none" 
	d="
M261.684326,41.921066 
	C261.584961,42.747398 261.158203,43.552654 260.352722,44.206947 
	C260.434967,43.337318 260.895966,42.618652 261.684326,41.921066 
z"/>
<path fill="#FEFEFF" opacity="1.000000" stroke="none" 
	d="
M266.405090,41.237244 
	C266.488770,42.087807 266.572449,42.938366 266.656128,43.788925 
	C266.303467,43.564968 265.950836,43.341011 265.831451,42.489990 
	C266.178162,41.654369 266.291626,41.445808 266.405090,41.237244 
z"/>
<path fill="#FEFEFF" opacity="1.000000" stroke="none" 
	d="
M265.828461,42.129387 
	C265.730316,41.925144 265.868439,41.454445 266.205841,41.110497 
	C266.291626,41.445808 266.178162,41.654369 265.828461,42.129387 
z"/>
</svg>